<svg width="1697" height="1545" viewBox="0 0 1697 1545" fill="none" xmlns="http://www.w3.org/2000/svg">
<path d="M709.097 97.7321C700.793 101.682 692.714 105.968 684.321 109.424C651.062 123.159 616.793 130.049 580.639 124.393C559.7 121.117 547.604 115.798 527.698 99.6397C513.358 107.831 498.277 115.618 484.071 124.752C461.898 139.003 440.197 154.039 418.495 169.008C382.611 193.761 350.16 222.599 319.459 253.435C297.399 275.585 275.069 297.466 253.749 320.312C232.766 342.798 212.478 365.959 192.662 389.478C173.092 412.705 154.398 436.651 135.569 460.484C124.034 475.071 112.05 489.434 101.862 504.964C83.4817 532.994 66.134 561.697 48.6742 590.333C42.7944 599.961 37.3858 609.925 32.7179 620.204C29.4189 627.497 27.5338 635.487 25.4018 643.274C23.4269 650.455 18.1306 655.797 12.363 655.617C7.38093 655.46 1.23183 649.85 0.423916 643.341C-0.226902 638.202 -0.20446 632.637 1.02985 627.632C5.74266 608.287 12.565 589.817 23.3596 572.739C30.8777 560.845 36.0393 547.514 43.2656 535.418C52.6015 519.753 62.5209 504.403 72.9788 489.434C83.1675 474.869 94.0069 460.731 105.138 446.862C122.104 425.766 139.385 404.918 156.844 384.249C171.207 367.238 185.66 350.272 200.719 333.889C221.298 311.469 242.326 289.454 263.466 267.573C277.56 252.986 291.653 238.309 306.734 224.776C328.413 205.341 350.878 186.737 373.252 168.088C407.005 139.968 444.169 116.696 481.67 94.1189C532.254 63.6652 584.633 36.6002 642.085 21.3845C658.4 17.0756 675.703 15.5271 692.647 14.8314C722.719 13.5522 737.351 30.855 744.061 56.7306C749.829 78.9482 747.472 101.166 740.807 122.8C735.219 140.955 728.531 158.774 722.405 176.75C722.046 177.805 722.36 179.084 722.36 182.024C727.679 179.511 732.504 177.827 736.655 175.134C752.634 164.766 768.299 153.927 784.277 143.536C795.767 136.063 807.392 128.724 819.264 121.835C841.773 108.751 864.171 95.3757 887.263 83.3692C905.913 73.6518 925.37 65.3932 944.76 57.1794C972.408 45.4872 1001.4 37.8345 1030.2 29.4412C1060.16 20.6888 1090.41 13.5747 1121.09 8.45792C1164.04 1.27648 1207.4 -1.50632 1250.91 0.78276C1280.58 2.3537 1309.02 9.93909 1334.11 25.9178C1366.26 46.3848 1386.8 75.9634 1394.05 113.711C1397.32 130.789 1399.59 147.98 1399.68 165.686C1399.95 211.625 1387.85 253.726 1363.98 292.551C1345.21 323.049 1323.04 350.81 1295.53 374.105C1283.23 384.518 1272.14 396.367 1259.73 406.646C1246.09 417.979 1231.66 428.392 1217.38 438.985C1202.78 449.824 1187.96 460.327 1173.26 471.054C1172.37 471.705 1171.85 472.895 1169.96 475.453C1184.8 472.064 1197.99 468.877 1211.24 466.05C1235.45 460.866 1259.58 455.188 1283.97 450.991C1305.87 447.221 1328.02 444.326 1350.17 442.553C1378.9 440.264 1407.74 439.119 1436.53 438.132C1455.61 437.481 1474.79 436.83 1493.78 438.289C1518.83 440.219 1543.76 443.832 1568.65 447.423C1593.36 450.991 1616.61 459.609 1639.07 470.202C1661.35 480.704 1679.29 496.414 1690.33 518.542C1700.87 539.727 1698.2 561.204 1687.32 581.648C1674.35 606.043 1655.47 625.365 1633.35 641.524C1620.76 650.702 1608.01 659.746 1594.68 667.758C1582.27 675.209 1569.3 681.874 1556.08 687.776C1519.93 703.957 1483.68 719.981 1447.15 735.264C1419.5 746.844 1391.42 757.481 1363.35 768.007C1341 776.4 1318.35 783.985 1294.43 792.446C1297.95 793.59 1300.35 794.757 1302.89 795.161C1319.23 797.787 1335.68 799.807 1351.9 802.926C1363.01 805.058 1373.83 808.626 1384.78 811.566C1398.11 815.135 1411.49 818.546 1424.73 822.383C1439.54 826.692 1454.42 830.889 1468.91 836.051C1492.12 844.332 1515.23 852.905 1538.04 862.263C1551.86 867.941 1565.08 875.1 1578.36 881.989C1590.53 888.295 1602.78 894.602 1614.34 901.94C1624.84 908.606 1634.45 916.415 1642.46 926.424C1649.35 935.02 1657.31 942.919 1660.3 953.647C1665.01 970.545 1667.3 987.646 1660.3 1004.84C1649.66 1030.96 1630.63 1049.79 1608.35 1065.86C1599.8 1072.03 1591.34 1078.36 1582.31 1083.77C1559.94 1097.14 1535.93 1106.95 1511.64 1116.35C1488.12 1125.46 1463.8 1131.7 1439.36 1136.64C1411.67 1142.25 1383.25 1144.18 1355.16 1147.95C1343.6 1149.5 1332.18 1152.21 1320.6 1153.36C1300.15 1155.38 1279.64 1156.54 1259.17 1158.21C1250.46 1158.92 1241.8 1160.02 1232.76 1163.14C1240.32 1166.1 1247.86 1169.07 1255.42 1172.03C1260.34 1173.96 1265.41 1175.49 1270.12 1177.82C1292.92 1189.18 1316.31 1199.41 1337.88 1213.19C1355.65 1224.54 1372.73 1236.82 1386.57 1252.78C1394.99 1262.47 1404.51 1271.29 1410.57 1283.05C1424.91 1310.88 1435.25 1339.63 1426.1 1371.04C1421.97 1385.23 1414.34 1398.54 1407.22 1411.64C1394.32 1435.41 1373.11 1451.57 1352.84 1468.42C1348.94 1471.67 1343.73 1473.34 1339.33 1476.1C1334.94 1478.86 1331.12 1482.63 1326.52 1484.94C1307.83 1494.34 1289.98 1505.54 1269.58 1511.44C1252.91 1516.27 1236.64 1522.55 1220.01 1527.58C1211.15 1530.27 1201.99 1532.18 1192.83 1533.59C1167.25 1537.56 1141.64 1541.69 1115.66 1542.28C1085.34 1542.95 1054.97 1544.88 1024.68 1543.98C1001.34 1543.31 977.817 1544.03 954.544 1539.65C938.252 1536.58 921.353 1536.76 904.948 1534.15C871.374 1528.83 837.689 1523.96 804.924 1514.4C781.584 1507.6 757.841 1502.06 734.815 1494.34C713.361 1487.14 692.602 1477.8 671.574 1469.3C658.041 1463.82 644.486 1458.34 631.111 1452.46C615.177 1445.46 599.086 1438.71 583.691 1430.63C549.893 1412.88 516.41 1394.54 482.971 1376.12C458.756 1362.76 435.26 1348.24 414.187 1330.18C406.579 1323.65 399.263 1316.76 393.899 1306.3C405.187 1305.76 413.626 1310.07 421.57 1314.11C444.416 1325.71 466.701 1338.41 489.345 1350.38C512.976 1362.88 536.63 1375.4 560.598 1387.27C582.771 1398.27 605.213 1408.72 627.744 1418.91C670.721 1438.33 714.617 1455.4 760.13 1467.93C789.484 1476.01 818.95 1483.79 848.596 1490.66C881.002 1498.18 914.082 1501.57 947.228 1503.77C970.231 1505.29 993.279 1507.27 1016.3 1507.25C1054.41 1507.18 1092.47 1506.1 1130.53 1502.85C1156.93 1500.6 1182.71 1495.51 1208.27 1489.63C1227.01 1485.32 1245.03 1477.49 1262.96 1470.22C1277.3 1464.4 1291.04 1457.04 1306.37 1449.75C1302.37 1446.92 1299.97 1444.83 1297.23 1443.38C1283.59 1436.04 1274.86 1424.03 1269.76 1410.27C1264.47 1395.98 1259.49 1381.23 1259.87 1365.41C1260.11 1354.66 1263.57 1349.61 1273.44 1345.57C1278.67 1343.44 1283.57 1340.39 1288.39 1337.38C1310.79 1323.38 1333.07 1309.22 1355.47 1295.21C1358.19 1293.51 1361.24 1292.39 1365.64 1290.28C1362.43 1285.7 1359.98 1280.58 1356.12 1276.99C1336.69 1259.04 1316.22 1242.34 1291.89 1231.32C1268.26 1220.62 1244.67 1209.73 1220.48 1200.42C1204.66 1194.34 1187.87 1190.68 1171.42 1186.32C1152.24 1181.25 1133 1176.23 1113.64 1171.98C1105 1170.1 1095.88 1169.38 1087.02 1169.54C1060.63 1170.01 1034.35 1169.85 1008.25 1164.89C991.663 1161.73 974.72 1160.31 958.27 1156.57C941.932 1152.84 925.594 1150.89 908.92 1149.9C889.934 1148.78 886.433 1142.23 883.673 1131.7C881.384 1122.99 884.885 1113.21 893.413 1109.89C900.504 1107.13 908.314 1104.75 915.81 1104.73C933.427 1104.66 951.066 1105.76 968.66 1107.06C987.646 1108.47 1006.68 1109.98 1025.53 1112.67C1046.69 1115.7 1068.1 1118.55 1088.64 1124.23C1118.3 1132.42 1147.86 1131.9 1177.86 1128.58C1198.47 1126.32 1219.16 1124.88 1239.78 1122.68C1268.04 1119.65 1296.25 1116.19 1324.48 1113.03C1339.36 1111.37 1354.3 1110.36 1369.14 1108.41C1384.8 1106.34 1400.31 1103.13 1416 1101.14C1435.68 1098.62 1454.26 1091.87 1473.22 1086.66C1497.89 1079.91 1520.73 1068.44 1543.31 1056.68C1557.2 1049.45 1571.9 1042.61 1583.5 1032.46C1596.92 1020.73 1612.52 1010.38 1619.9 992.583C1627.06 975.325 1624.95 962.848 1612.09 949.338C1595.31 931.698 1574.84 919.759 1553.09 909.57C1548.38 907.371 1544.18 904.027 1539.45 901.873C1536.76 900.639 1532.81 899.292 1530.56 900.392C1516 907.439 1501.72 915.114 1487.43 922.677C1485.66 923.619 1484.17 925.078 1482.65 926.245C1489.76 950.303 1498.02 972.498 1512.88 992C1519.68 1000.91 1524.37 1011.43 1529.87 1021.33C1531.01 1023.4 1532.09 1025.89 1532.02 1028.15C1531.89 1034.33 1530.9 1040.56 1525.09 1044.16C1520.62 1046.92 1507.67 1044.36 1503.56 1039.69C1497.69 1033 1492.32 1025.89 1486.96 1018.77C1472.44 999.518 1461.15 978.624 1455.65 954.993C1453.92 947.52 1452.82 939.867 1451.77 932.237C1450.85 925.504 1454.62 920.836 1459.11 916.303C1469.41 905.912 1482.22 899.92 1495.49 894.602C1499.23 893.098 1503.09 891.819 1509.04 889.642C1504.87 887.039 1502.26 884.66 1499.23 883.628C1478.14 876.446 1457.02 869.287 1435.77 862.577C1394.03 849.404 1351.61 838.721 1308.25 832.886C1283.39 829.542 1258.16 828.375 1233.05 827.635C1213.68 827.074 1194.09 827.433 1174.88 829.722C1159.33 831.585 1144.09 836.567 1128.87 840.853C1110.96 845.88 1093.24 851.603 1075.46 857.056C1068.48 859.188 1061.53 861.41 1054.57 863.632C1025.98 872.721 996.78 879.453 967.247 884.458C958.674 885.917 949.585 884.727 940.765 884.189C938.768 884.076 936.524 881.989 935.087 880.239C924.674 867.537 924.338 852.658 938.97 841.684C954.141 830.305 970.972 823.438 988.387 817.693C1006.05 811.881 1024 806.652 1042.2 802.904C1081.48 794.802 1121.15 789.73 1161.41 789.349C1175.06 789.214 1189.22 787.666 1202.19 783.693C1239.78 772.203 1276.92 759.209 1314.2 746.732C1333.41 740.291 1352.84 734.388 1371.67 726.983C1397.26 716.929 1422.41 705.73 1447.71 694.913C1470.06 685.375 1492.46 675.927 1514.63 665.985C1525.29 661.205 1535.28 654.921 1545.89 650.029C1564.74 641.344 1581.95 629.899 1599.26 618.633C1604.37 615.289 1608.75 610.778 1615.46 605.1C1584.11 604.113 1558.68 593.61 1534.06 580.594C1529.78 578.327 1525.02 576.442 1526.93 569.732C1527.33 568.363 1525.54 566.141 1524.41 564.57C1512.95 548.479 1505.41 530.548 1500 511.742C1496.38 499.129 1498.34 496.616 1510.72 491.993C1520.91 488.178 1530.27 482.702 1540.55 475.767C1537.5 474.308 1536.17 473.186 1534.8 473.074C1515.39 471.683 1495.98 469.82 1476.52 469.326C1459.2 468.877 1441.76 469.304 1424.48 470.561C1388.89 473.141 1353.25 475.565 1317.84 479.941C1292.92 483.016 1268.17 488.29 1243.71 494.147C1211.39 501.89 1179.26 510.62 1147.39 520.023C1129.97 525.162 1113.16 532.343 1096.24 539.031C1080.49 545.27 1064.33 550.88 1049.52 558.892C1029.21 569.889 1010.04 582.995 990.25 595.001C971.892 606.155 953.579 617.421 934.863 627.946C910.85 641.456 886.68 654.742 862.106 667.175C854.386 671.08 845.207 672.785 836.5 673.93C826.446 675.254 819.511 668.117 815.045 660.667C811.163 654.226 812.442 646.797 816.504 639.167C825.211 622.829 840.27 613.875 854.341 603.911C863.026 597.762 873.215 593.677 882.887 588.964C895.948 582.636 909.032 576.307 922.318 570.495C951.986 557.501 981.856 545.001 1011.48 531.917C1028.42 524.421 1046.06 517.823 1061.57 507.949C1093.62 487.527 1125.08 466.027 1155.58 443.361C1190.97 417.081 1225.78 389.904 1259.53 361.538C1280.85 343.629 1300.31 323.521 1317.23 300.967C1336.44 275.36 1350.89 247.532 1359.2 216.921C1364.38 197.846 1366.92 177.962 1364.56 157.899C1363.8 151.525 1363.39 145.085 1363.26 138.666C1362.05 86.556 1324.28 47.7089 1279.35 36.5777C1248.74 29.0148 1218.24 29.5758 1187.36 31.3038C1152.73 33.2339 1118.46 38.014 1084.8 45.9136C1056 52.6686 1027.68 61.4434 999.361 70.0611C984.325 74.6393 969.536 80.2273 955.061 86.354C939.037 93.1539 923.103 100.425 907.82 108.729C883.964 121.7 860.423 135.3 837.263 149.438C818.681 160.772 800.637 173.047 782.706 185.413C763.675 198.541 744.936 212.096 726.332 225.808C714.303 234.673 702.656 244.099 691.008 253.502C688.876 255.207 687.395 257.856 685.981 260.302C675.254 278.839 665.021 297.668 653.867 315.935C640.132 338.377 624.917 359.922 611.676 382.655C593.027 414.68 568.139 442.082 547.133 472.356C536.608 487.527 523.232 500.768 510.642 514.435C506.311 519.125 500.768 522.963 495.18 526.172C487.258 530.705 478.685 528.214 472.244 523.658C466.746 519.776 463.716 513.806 463.469 505.144C462.886 484.542 471.481 467.419 480.592 450.61C490.961 431.444 502.9 413.087 514.884 394.864C527.519 375.676 540.804 356.914 554.18 338.243C571.909 313.489 591.86 290.666 614.863 270.603C629.764 257.609 645.653 245.602 659.275 231.396C666.861 223.474 671.304 212.253 676.017 201.997C681.089 190.956 685.308 179.466 689.056 167.908C696.35 145.578 703.06 123.047 709.949 100.582C710.084 99.9538 709.501 99.101 709.097 97.7321ZM1538.6 566.724C1565.57 579.898 1588.15 585.329 1612.77 588.538C1627.18 590.401 1636.83 585.464 1645.31 575.118C1655.88 562.214 1663.51 541.993 1654.49 526.912C1648.45 516.814 1640.48 508.757 1631.01 503.079C1613.62 492.643 1594.5 485.754 1574.64 481.131C1570.11 480.076 1566.16 479.829 1561.87 482.365C1548 490.579 1533.91 498.434 1519.21 506.827C1524.08 519.237 1528.39 530.548 1532.92 541.747C1536.11 549.601 1540.59 557.119 1538.6 566.724ZM1292.23 1365.82C1292.54 1368.94 1292.48 1372.23 1293.28 1375.31C1297.48 1391.31 1301.86 1407.24 1306.3 1423.18C1308.34 1430.45 1322.88 1436.04 1329.17 1431.73C1334.08 1428.34 1338.62 1424.34 1343.02 1420.26C1356.3 1407.92 1369.97 1395.75 1377.31 1378.59C1382.85 1365.64 1389.22 1352.84 1387.25 1337.94C1385.68 1326.07 1385.23 1313.86 1373.15 1305C1352.35 1319.94 1331.55 1334.71 1310.97 1349.81C1304.48 1354.59 1298.65 1360.3 1292.23 1365.82ZM710.959 65.3259C706 47.8436 704.563 46.0258 687.171 45.2852C677.207 44.8588 667.018 45.8238 657.166 47.5518C619.957 54.1273 586.406 70.8017 552.541 86.5335C549.759 87.8352 547.447 90.1691 544.664 92.1889C584.97 118.222 665.761 99.3704 710.959 65.3259Z" fill="black"/>
<path d="M1286.1 255.814C1297.5 252.649 1309.58 249.171 1321.72 245.962C1326.36 244.75 1331.19 243.471 1335.92 243.515C1340.43 243.56 1342.25 247.622 1339.63 251.393C1337.61 254.265 1334.8 257.272 1331.66 258.574C1315.82 265.082 1299.52 270.132 1282.15 269.975C1275.13 269.907 1267.97 269.862 1267.5 259.629C1267.41 257.609 1263.97 255.477 1261.75 253.861C1220.39 223.609 1196.56 182.63 1186.28 132.877C1181.63 110.412 1178.94 87.9477 1181.81 65.1691C1182.82 57.2247 1184.87 49.1007 1188.14 41.8295C1191.89 33.5259 1197.73 33.1444 1205.89 39.4057C1190.16 57.6062 1195.93 79.3524 1197.7 99.7297C1200.31 129.78 1208.52 158.707 1223.24 185.458C1234.17 205.319 1248.56 222.196 1265.68 236.918C1272.05 242.438 1278.11 248.408 1286.1 255.814Z" fill="black"/>
</svg>
