<svg width="34" height="31" viewBox="0 0 34 31" fill="none" xmlns="http://www.w3.org/2000/svg">
<path d="M13.8752 1.91237C13.7128 1.98966 13.5547 2.07353 13.3904 2.14116C12.7396 2.40991 12.0691 2.54472 11.3616 2.43406C10.9519 2.36995 10.7152 2.26587 10.3257 1.9497C10.0451 2.10998 9.75002 2.26236 9.47205 2.44109C9.03819 2.71994 8.61354 3.01416 8.1889 3.30706C7.48673 3.79142 6.85174 4.35571 6.25101 4.95908C5.81934 5.3925 5.3824 5.82066 4.96523 6.26769C4.55464 6.7077 4.15766 7.16089 3.76991 7.6211C3.38698 8.0756 3.02119 8.54416 2.65275 9.01052C2.42704 9.29595 2.19254 9.577 1.99318 9.88088C1.63353 10.4294 1.29408 10.991 0.952431 11.5513C0.837378 11.7397 0.731547 11.9347 0.640207 12.1358C0.575655 12.2785 0.538768 12.4349 0.49705 12.5873C0.458406 12.7278 0.354771 12.8323 0.241914 12.8288C0.144426 12.8257 0.0241037 12.7159 0.00829496 12.5886C-0.00443989 12.488 -0.00400076 12.3791 0.0201516 12.2812C0.112369 11.9026 0.245866 11.5412 0.457089 11.2071C0.604198 10.9743 0.705199 10.7135 0.8466 10.4768C1.02928 10.1703 1.22338 9.8699 1.42801 9.577C1.62738 9.292 1.83948 9.01535 2.05729 8.74396C2.38927 8.33118 2.72741 7.92322 3.06905 7.51878C3.3501 7.18592 3.6329 6.85393 3.92756 6.53337C4.33024 6.09467 4.74171 5.66388 5.15537 5.23573C5.43115 4.95029 5.70692 4.6631 6.00202 4.3983C6.42622 4.01801 6.8658 3.65397 7.30361 3.28905C7.96407 2.73882 8.69127 2.28344 9.42506 1.84167C10.4149 1.24577 11.4398 0.716173 12.564 0.418441C12.8832 0.334127 13.2218 0.303827 13.5534 0.290214C14.1418 0.265183 14.4281 0.603755 14.5594 1.11008C14.6723 1.54482 14.6262 1.97956 14.4957 2.40288C14.3864 2.75814 14.2555 3.10681 14.1356 3.45856C14.1286 3.4792 14.1348 3.50423 14.1348 3.56175C14.2388 3.51257 14.3333 3.47964 14.4145 3.42694C14.7272 3.22406 15.0337 3.01196 15.3463 2.80864C15.5712 2.66241 15.7986 2.51881 16.0309 2.384C16.4714 2.12799 16.9096 1.86626 17.3615 1.63133C17.7264 1.44118 18.1072 1.27958 18.4866 1.11886C19.0276 0.890069 19.5949 0.740325 20.1583 0.576089C20.7446 0.404828 21.3365 0.265622 21.9368 0.1655C22.7773 0.0249776 23.6257 -0.0294749 24.4772 0.0153166C25.0578 0.046056 25.6141 0.194483 26.1051 0.507146C26.7344 0.907635 27.1362 1.48641 27.278 2.22503C27.3421 2.55921 27.3865 2.89559 27.3882 3.24207C27.3935 4.14097 27.1568 4.96478 26.6896 5.72448C26.3225 6.32127 25.8886 6.86447 25.3502 7.32029C25.1096 7.52405 24.8926 7.75591 24.6498 7.95704C24.3828 8.1788 24.1004 8.38256 23.8212 8.58983C23.5353 8.80193 23.2455 9.00744 22.9578 9.21735C22.9403 9.23008 22.9302 9.25336 22.8933 9.30342C23.1835 9.23711 23.4417 9.17475 23.7008 9.11942C24.1747 9.01798 24.6467 8.90688 25.1241 8.82476C25.5527 8.75099 25.9861 8.69434 26.4195 8.65965C26.9816 8.61486 27.5459 8.59246 28.1093 8.57314C28.4826 8.56041 28.858 8.54767 29.2295 8.57621C29.7196 8.61398 30.2075 8.68468 30.6945 8.75494C31.178 8.82476 31.6329 8.99339 32.0725 9.20066C32.5085 9.40618 32.8594 9.71357 33.0754 10.1466C33.2818 10.5611 33.2296 10.9813 33.0166 11.3814C32.7628 11.8587 32.3935 12.2368 31.9605 12.553C31.7141 12.7326 31.4647 12.9096 31.2039 13.0663C30.961 13.2121 30.7072 13.3426 30.4486 13.4581C29.7411 13.7747 29.0319 14.0882 28.317 14.3873C27.776 14.6139 27.2266 14.822 26.6773 15.028C26.2399 15.1922 25.7968 15.3406 25.3287 15.5062C25.3976 15.5286 25.4446 15.5514 25.4943 15.5593C25.8139 15.6107 26.1358 15.6502 26.4533 15.7112C26.6707 15.753 26.8824 15.8228 27.0966 15.8803C27.3575 15.9501 27.6192 16.0169 27.8783 16.092C28.1681 16.1763 28.4593 16.2584 28.743 16.3594C29.197 16.5214 29.6493 16.6892 30.0955 16.8723C30.366 16.9834 30.6246 17.1235 30.8846 17.2583C31.1226 17.3817 31.3624 17.5051 31.5885 17.6487C31.7941 17.7791 31.982 17.9319 32.1388 18.1278C32.2736 18.296 32.4295 18.4506 32.4879 18.6605C32.5801 18.9911 32.6249 19.3258 32.4879 19.6621C32.2797 20.1733 31.9074 20.5417 31.4713 20.8561C31.304 20.9769 31.1384 21.1007 30.9619 21.2066C30.5241 21.4683 30.0542 21.6602 29.5791 21.8442C29.1189 22.0225 28.6428 22.1445 28.1646 22.2412C27.6227 22.3509 27.0668 22.3887 26.517 22.4625C26.2908 22.4928 26.0673 22.5459 25.8407 22.5683C25.4407 22.6078 25.0393 22.6307 24.6388 22.6632C24.4684 22.6772 24.2989 22.6987 24.122 22.7598C24.27 22.8177 24.4175 22.8757 24.5655 22.9337C24.6617 22.9714 24.7609 23.0013 24.8531 23.047C25.2993 23.2692 25.7569 23.4694 26.1789 23.739C26.5267 23.9612 26.8608 24.2014 27.1318 24.5137C27.2965 24.7034 27.4826 24.876 27.6012 25.1061C27.8818 25.6506 28.0843 26.2131 27.9051 26.8279C27.8243 27.1054 27.675 27.3658 27.5358 27.6223C27.2833 28.0873 26.8683 28.4035 26.4718 28.7333C26.3954 28.797 26.2935 28.8295 26.2074 28.8835C26.1213 28.9375 26.0467 29.0113 25.9567 29.0565C25.5909 29.2405 25.2418 29.4596 24.8426 29.5751C24.5163 29.6695 24.1979 29.7925 23.8725 29.8908C23.6991 29.9435 23.5199 29.9809 23.3407 30.0085C22.8401 30.0863 22.3391 30.1671 21.8306 30.1785C21.2373 30.1917 20.6432 30.2294 20.0503 30.2119C19.5936 30.1987 19.1334 30.2127 18.678 30.1271C18.3592 30.0669 18.0286 30.0705 17.7075 30.0195C17.0506 29.9154 16.3915 29.8201 15.7503 29.6331C15.2936 29.5 14.829 29.3916 14.3785 29.2405C13.9587 29.0995 13.5525 28.9169 13.141 28.7504C12.8762 28.6433 12.611 28.5361 12.3492 28.4211C12.0375 28.2841 11.7226 28.1519 11.4214 27.9938C10.76 27.6464 10.1048 27.2877 9.45053 26.9271C8.97671 26.6659 8.51693 26.3817 8.10459 26.0282C7.95572 25.9004 7.81257 25.7656 7.70761 25.561C7.9285 25.5505 8.09361 25.6348 8.24906 25.7138C8.6961 25.9408 9.13216 26.1894 9.57525 26.4235C10.0377 26.6681 10.5005 26.9131 10.9695 27.1454C11.4034 27.3606 11.8425 27.5652 12.2834 27.7646C13.1243 28.1444 13.9833 28.4786 14.8738 28.7236C15.4482 28.8817 16.0248 29.0341 16.6049 29.1685C17.239 29.3156 17.8863 29.3819 18.5349 29.4249C18.985 29.4548 19.436 29.4934 19.8865 29.493C20.6322 29.4917 21.3769 29.4706 22.1217 29.4069C22.6381 29.363 23.1427 29.2633 23.6429 29.1483C24.0095 29.064 24.3622 28.9107 24.713 28.7684C24.9936 28.6547 25.2624 28.5107 25.5623 28.3679C25.4842 28.3126 25.4372 28.2718 25.3836 28.2432C25.1166 28.0996 24.9458 27.8647 24.8461 27.5955C24.7425 27.3158 24.645 27.0273 24.6524 26.7177C24.6573 26.5073 24.7249 26.4085 24.9181 26.3295C25.0204 26.2878 25.1162 26.228 25.2106 26.1692C25.6488 25.8952 26.0849 25.6181 26.5231 25.3441C26.5763 25.3107 26.636 25.2887 26.7221 25.2475C26.6593 25.1579 26.6114 25.0578 26.5359 24.9875C26.1556 24.6362 25.7551 24.3095 25.2791 24.0939C24.8167 23.8844 24.3551 23.6714 23.8818 23.4892C23.5722 23.3702 23.2437 23.2986 22.9218 23.2134C22.5464 23.1141 22.17 23.0158 21.791 22.9328C21.622 22.8959 21.4437 22.8818 21.2702 22.8849C20.7538 22.8941 20.2396 22.8911 19.7289 22.794C19.4044 22.7321 19.0728 22.7044 18.7509 22.6311C18.4312 22.5582 18.1116 22.52 17.7853 22.5007C17.4138 22.4787 17.3453 22.3505 17.2913 22.1445C17.2465 21.9742 17.315 21.7827 17.4818 21.7177C17.6206 21.6637 17.7734 21.6171 17.9201 21.6167C18.2648 21.6154 18.61 21.6369 18.9542 21.6624C19.3258 21.69 19.6981 21.7195 20.067 21.7722C20.4811 21.8314 20.9 21.8872 21.3019 21.9983C21.8824 22.1586 22.4607 22.1485 23.0478 22.0835C23.451 22.0392 23.8558 22.011 24.2594 21.968C24.8123 21.9087 25.3643 21.8411 25.9167 21.7792C26.2078 21.7467 26.5003 21.7269 26.7906 21.6887C27.0971 21.6483 27.4005 21.5855 27.7075 21.5464C28.0926 21.4973 28.4562 21.3651 28.8273 21.2632C29.3099 21.131 29.7569 20.9066 30.1987 20.6765C30.4705 20.5351 30.7581 20.4012 30.9852 20.2027C31.2478 19.973 31.553 19.7706 31.6974 19.4224C31.8375 19.0847 31.7963 18.8405 31.5446 18.5762C31.2162 18.231 30.8157 17.9974 30.3901 17.798C30.2979 17.755 30.2158 17.6895 30.1232 17.6474C30.0705 17.6232 29.9932 17.5969 29.9493 17.6184C29.6643 17.7563 29.385 17.9065 29.1052 18.0545C29.0706 18.0729 29.0416 18.1014 29.0117 18.1243C29.1509 18.595 29.3125 19.0293 29.6032 19.4109C29.7363 19.5853 29.8281 19.7912 29.9356 19.9849C29.958 20.0253 29.9791 20.074 29.9778 20.1184C29.9752 20.2391 29.9558 20.3612 29.8421 20.4315C29.7547 20.4855 29.5013 20.4354 29.421 20.3441C29.3059 20.2132 29.201 20.074 29.096 19.9348C28.8119 19.5581 28.591 19.1492 28.4834 18.6868C28.4496 18.5406 28.4281 18.3908 28.4075 18.2415C28.3895 18.1098 28.4632 18.0185 28.5511 17.9297C28.7526 17.7264 29.0034 17.6092 29.2629 17.5051C29.3362 17.4757 29.4118 17.4507 29.5281 17.4081C29.4464 17.3571 29.3955 17.3106 29.3362 17.2904C28.9234 17.1498 28.5102 17.0098 28.0944 16.8785C27.2776 16.6207 26.4476 16.4117 25.5992 16.2975C25.1126 16.2321 24.6191 16.2092 24.1277 16.1947C23.7487 16.1838 23.3653 16.1908 22.9894 16.2356C22.6851 16.272 22.3869 16.3695 22.0892 16.4534C21.7388 16.5517 21.3919 16.6637 21.0441 16.7704C20.9075 16.8122 20.7714 16.8556 20.6352 16.8991C20.0758 17.077 19.5045 17.2087 18.9266 17.3066C18.7588 17.3352 18.581 17.3119 18.4084 17.3013C18.3693 17.2992 18.3254 17.2583 18.2973 17.2241C18.0935 16.9755 18.087 16.6844 18.3733 16.4696C18.6701 16.247 18.9995 16.1126 19.3402 16.0002C19.6858 15.8865 20.0371 15.7841 20.3933 15.7108C21.1618 15.5523 21.9382 15.453 22.726 15.4456C22.993 15.4429 23.27 15.4126 23.5239 15.3349C24.2594 15.1101 24.9862 14.8558 25.7156 14.6117C26.0915 14.4856 26.4718 14.3701 26.8402 14.2252C27.3408 14.0285 27.8331 13.8094 28.328 13.5977C28.7654 13.4111 29.2036 13.2262 29.6375 13.0317C29.8461 12.9381 30.0415 12.8152 30.2492 12.7194C30.6181 12.5495 30.9549 12.3255 31.2934 12.1051C31.3936 12.0397 31.4792 11.9514 31.6105 11.8403C30.997 11.821 30.4995 11.6155 30.0178 11.3608C29.9339 11.3164 29.8408 11.2795 29.8781 11.1482C29.886 11.1214 29.8509 11.078 29.8289 11.0472C29.6045 10.7324 29.457 10.3815 29.3512 10.0135C29.2805 9.7667 29.3187 9.71752 29.5611 9.62706C29.7604 9.55241 29.9435 9.44526 30.1447 9.30957C30.085 9.28102 30.059 9.25907 30.0323 9.25687C29.6524 9.22964 29.2726 9.1932 28.8918 9.18354C28.5528 9.17475 28.2116 9.1831 27.8735 9.20769C27.177 9.25819 26.4797 9.30561 25.7867 9.39124C25.2993 9.45141 24.8149 9.5546 24.3363 9.66922C23.7039 9.82072 23.0751 9.99154 22.4515 10.1755C22.1107 10.2761 21.7818 10.4166 21.4507 10.5475C21.1424 10.6696 20.8263 10.7793 20.5364 10.9361C20.139 11.1513 19.764 11.4077 19.3767 11.6427C19.0175 11.8609 18.6591 12.0814 18.2929 12.2873C17.823 12.5517 17.3501 12.8117 16.8692 13.0549C16.7182 13.1313 16.5386 13.1647 16.3682 13.1871C16.1715 13.213 16.0358 13.0734 15.9484 12.9276C15.8724 12.8016 15.8974 12.6562 15.9769 12.5069C16.1473 12.1872 16.442 12.012 16.7173 11.817C16.8872 11.6967 17.0866 11.6168 17.2759 11.5246C17.5315 11.4007 17.7875 11.2769 18.0474 11.1631C18.628 10.9089 19.2125 10.6643 19.7921 10.4083C20.1237 10.2616 20.4688 10.1325 20.7723 9.93928C21.3993 9.53967 22.015 9.11898 22.6118 8.67546C23.3043 8.16123 23.9854 7.62944 24.6458 7.07438C25.063 6.72395 25.4438 6.33049 25.7749 5.88916C26.1508 5.38811 26.4336 4.84358 26.596 4.24461C26.6975 3.87134 26.7471 3.48227 26.701 3.08969C26.6861 2.96497 26.6782 2.83894 26.6755 2.71335C26.6518 1.69368 25.9127 0.933544 25.0336 0.715734C24.4346 0.567746 23.8378 0.578724 23.2336 0.612538C22.556 0.650303 21.8855 0.743838 21.2268 0.898413C20.6634 1.03059 20.1092 1.20229 19.555 1.37092C19.2608 1.4605 18.9714 1.56985 18.6881 1.68973C18.3746 1.82279 18.0628 1.96507 17.7638 2.12755C17.297 2.38137 16.8363 2.64748 16.3831 2.92413C16.0195 3.1459 15.6665 3.3861 15.3156 3.62806C14.9432 3.88496 14.5765 4.15019 14.2125 4.4185C13.9771 4.59196 13.7492 4.7764 13.5213 4.96039C13.4796 4.99377 13.4506 5.04558 13.4229 5.09345C13.213 5.45617 13.0128 5.82461 12.7945 6.18206C12.5258 6.62119 12.228 7.04276 11.969 7.4876C11.604 8.11425 11.117 8.65043 10.706 9.24282C10.5001 9.53967 10.2383 9.79876 9.99198 10.0662C9.90723 10.158 9.79876 10.2331 9.68942 10.2959C9.53441 10.3846 9.36666 10.3358 9.24063 10.2467C9.13304 10.1707 9.07376 10.0539 9.06893 9.88439C9.05751 9.48127 9.2257 9.14621 9.40398 8.8173C9.60686 8.44228 9.84048 8.08307 10.075 7.72649C10.3222 7.35103 10.5822 6.98392 10.8439 6.61856C11.1908 6.1342 11.5812 5.6876 12.0313 5.29501C12.3229 5.04075 12.6338 4.80582 12.9004 4.52785C13.0488 4.37283 13.1357 4.15327 13.228 3.95258C13.3272 3.73653 13.4098 3.51169 13.4831 3.28554C13.6258 2.8486 13.7571 2.40771 13.8919 1.96814C13.8946 1.95585 13.8831 1.93916 13.8752 1.91237ZM30.1065 11.0894C30.6343 11.3471 31.0761 11.4534 31.5578 11.5162C31.8397 11.5527 32.0286 11.456 32.1945 11.2536C32.4014 11.0011 32.5507 10.6054 32.3741 10.3104C32.256 10.1127 32.1001 9.95509 31.9148 9.84399C31.5745 9.63979 31.2003 9.50498 30.8117 9.41452C30.723 9.39388 30.6457 9.38905 30.5618 9.43867C30.2905 9.59939 30.0147 9.75309 29.7271 9.91733C29.8223 10.1602 29.9067 10.3815 29.9954 10.6006C30.0577 10.7543 30.1456 10.9014 30.1065 11.0894ZM25.2857 26.7256C25.2918 26.7866 25.2905 26.8512 25.3063 26.9113C25.3884 27.2244 25.4741 27.5362 25.561 27.848C25.601 27.9903 25.8855 28.0996 26.0085 28.0153C26.1046 27.949 26.1934 27.8708 26.2794 27.7909C26.5394 27.5494 26.8068 27.3114 26.9504 26.9754C27.0589 26.7221 27.1836 26.4718 27.145 26.1802C27.1142 25.9479 27.1054 25.709 26.8692 25.5355C26.4621 25.828 26.055 26.1169 25.6523 26.4125C25.5254 26.506 25.4113 26.6176 25.2857 26.7256ZM13.9117 1.27826C13.8146 0.936179 13.7865 0.900609 13.4462 0.886117C13.2512 0.877774 13.0519 0.896657 12.8591 0.93047C12.131 1.05914 11.4745 1.38541 10.8118 1.69324C10.7574 1.71871 10.7122 1.76438 10.6577 1.80391C11.4464 2.3133 13.0273 1.94443 13.9117 1.27826Z" fill="black"/>
<path d="M25.1658 5.0056C25.3889 4.94369 25.6251 4.87562 25.8627 4.81282C25.9536 4.78911 26.048 4.76408 26.1407 4.76496C26.2289 4.76584 26.2645 4.84532 26.2131 4.91909C26.1736 4.9753 26.1187 5.03415 26.0572 5.05962C25.7472 5.18697 25.4284 5.28577 25.0885 5.2827C24.9511 5.28138 24.811 5.2805 24.8018 5.08026C24.8 5.04073 24.7328 4.99902 24.6893 4.9674C23.88 4.37545 23.4137 3.57359 23.2125 2.60003C23.1216 2.16046 23.0689 1.72089 23.1251 1.27517C23.1449 1.11972 23.1849 0.96075 23.249 0.818471C23.3223 0.655992 23.4365 0.648526 23.5963 0.771044C23.2885 1.12718 23.4014 1.5527 23.4361 1.95143C23.487 2.53943 23.6477 3.10548 23.9358 3.62892C24.1496 4.01755 24.4311 4.34778 24.7662 4.63585C24.8909 4.74388 25.0095 4.86069 25.1658 5.0056Z" fill="black"/>
</svg>
