<?xml version="1.0" standalone="no"?>
<!DOCTYPE svg PUBLIC "-//W3C//DTD SVG 1.1//EN" "http://www.w3.org/Graphics/SVG/1.1/DTD/svg11.dtd" >
<svg xmlns="http://www.w3.org/2000/svg" xmlns:xlink="http://www.w3.org/1999/xlink" version="1.1">
<metadata></metadata>
<defs>
<font id="gt_zirkonlight" horiz-adv-x="1187" >
<font-face units-per-em="2048" ascent="1610" descent="-438" />
<missing-glyph horiz-adv-x="546" />
<glyph unicode="&#xfb01;" horiz-adv-x="1339" d="M51 926v98h232v168q0 150 74 226.5t204 76.5q161 0 248 -125l-84 -78q-34 45 -71.5 68.5t-90.5 23.5q-73 0 -111 -50t-38 -144v-166h334v-98h-334v-926h-131v926h-232zM999 1233v233h142v-233h-142zM1006 0v1024h129v-1024h-129z" />
<glyph unicode="&#xfb02;" horiz-adv-x="1339" d="M51 926v98h232v168q0 150 74 226.5t204 76.5q161 0 248 -125l-84 -78q-34 45 -71.5 68.5t-90.5 23.5q-73 0 -111 -50t-38 -144v-166h334v-98h-334v-926h-131v926h-232zM1006 0v1466h129v-1466h-129z" />
<glyph horiz-adv-x="0" />
<glyph horiz-adv-x="682" />
<glyph unicode="&#xd;" horiz-adv-x="546" />
<glyph unicode=" "  horiz-adv-x="546" />
<glyph unicode="&#x09;" horiz-adv-x="546" />
<glyph unicode="&#xa0;" horiz-adv-x="546" />
<glyph unicode="!" horiz-adv-x="624" d="M225 0v227h174v-227h-174zM242 1386v48h143v-48q0 -249 -8.5 -548t-18.5 -447h-90q-10 145 -18 444t-8 551z" />
<glyph unicode="&#x22;" horiz-adv-x="614" d="M117 905v529h104v-529h-104zM391 905v529h107v-529h-107z" />
<glyph unicode="#" horiz-adv-x="1284" d="M117 455v96h260l65 358h-245v95h262l80 430h108l-80 -430h254l80 430h109l-80 -430h237v-95h-254l-65 -358h237v-96h-256l-84 -455h-108l84 455h-254l-84 -455h-109l84 455h-241zM485 551h254l66 358h-254z" />
<glyph unicode="$" horiz-adv-x="1144" d="M127 395l139 43q3 -168 77.5 -261t211.5 -101v581l-113 48q-268 113 -268 362q0 160 103 251.5t278 100.5v189h61v-189q165 -8 268 -94t120 -242l-142 -43q-27 260 -246 273v-525l111 -45q144 -60 211.5 -153.5t67.5 -229.5q0 -175 -102.5 -276.5t-287.5 -110.5v-188h-61 v186q-197 6 -312.5 116.5t-115.5 307.5zM317 1085q0 -98 50 -155.5t147 -98.5l41 -16v500q-115 -8 -176.5 -66t-61.5 -164zM616 78q117 9 181.5 76t64.5 184q0 100 -47.5 165t-146.5 107l-52 21v-553z" />
<glyph unicode="%" horiz-adv-x="1505" d="M96 1032q0 185 71 287t210 102q137 0 208.5 -102t71.5 -287q0 -181 -71 -284t-209 -103t-209.5 103t-71.5 284zM209 1032q0 -143 42 -222t126 -79q164 0 164 301q0 303 -164 303q-84 0 -126 -79t-42 -224zM227 0l971 1393h82l-971 -1393h-82zM850 358q0 184 71 287 t209 103q137 0 209 -103.5t72 -286.5q0 -181 -71.5 -284t-209.5 -103t-209 103t-71 284zM963 356q0 -142 41.5 -220.5t125.5 -78.5q164 0 164 301q0 304 -164 304q-84 0 -125.5 -80t-41.5 -226z" />
<glyph unicode="&#x26;" horiz-adv-x="1302" d="M109 391q0 148 82 248.5t235 130.5v4l-16 23q-140 193 -140 338q0 126 91 206t243 80q149 0 238.5 -80.5t89.5 -212.5q0 -129 -90 -224.5t-242 -129.5v-6l350 -481q41 113 41 243q0 85 -28 205l129 -24q18 -95 18 -183q0 -196 -104 -317q77 -107 141 -107q41 0 96 50 l47 -95q-43 -40 -79 -55.5t-83 -15.5q-128 0 -215 121v2q-125 -140 -344 -140q-209 0 -334.5 111t-125.5 309zM246 412q0 -155 92.5 -240.5t259.5 -85.5q148 0 270 84l-413 565q-103 -39 -156 -123t-53 -200zM408 1135q0 -106 124 -275l39 -53q113 56 171.5 136.5 t58.5 170.5q0 92 -56 150.5t-145 58.5q-82 0 -137 -50.5t-55 -137.5z" />
<glyph unicode="'" horiz-adv-x="346" d="M117 905v529h112v-529h-112z" />
<glyph unicode="(" horiz-adv-x="612" d="M182 633q0 268 71 501t222 451h107q-142 -226 -203.5 -457t-61.5 -495t61.5 -495t203.5 -457h-107q-151 218 -222 451t-71 501z" />
<glyph unicode=")" horiz-adv-x="612" d="M31 -319q141 225 202.5 456.5t61.5 495.5t-61.5 495.5t-202.5 456.5h104q151 -219 223 -452t72 -500t-72 -500t-223 -452h-104z" />
<glyph unicode="*" horiz-adv-x="884" d="M115 1223l30 94l136 -49q67 -24 137 -74l8 6q-26 80 -29 150l-4 145h99l-5 -143q-3 -75 -28 -152l8 -6q69 50 135 74l137 49l29 -94l-135 -39q-70 -21 -156 -21l-4 -10q72 -52 113 -106l88 -115l-78 -58l-80 117q-40 60 -67 144h-11q-25 -77 -67 -142l-80 -119l-80 58 l86 112q53 65 115 107l-4 12q-85 0 -154 19z" />
<glyph unicode="+" d="M82 465v94h465v465h94v-465h465v-94h-465v-465h-94v465h-465z" />
<glyph unicode="," horiz-adv-x="526" d="M182 0v227h174v-170q0 -138 -26 -220t-92 -148l-56 43q54 58 75.5 116.5t21.5 143.5q0 16 10 26l-6 7q-19 -25 -47 -25h-54z" />
<glyph unicode="-" horiz-adv-x="825" d="M127 500v106h573v-106h-573z" />
<glyph unicode="." horiz-adv-x="516" d="M172 0v227h172v-227h-172z" />
<glyph unicode="/" horiz-adv-x="905" d="M117 -225l567 1761h104l-567 -1761h-104z" />
<glyph unicode="0" horiz-adv-x="1232" d="M150 696q0 366 116 545.5t350 179.5q467 0 467 -725t-467 -725q-234 0 -350 179.5t-116 545.5zM297 696q0 -311 78 -461.5t241 -150.5t241.5 150.5t78.5 461.5t-78.5 462t-241.5 151q-162 0 -240.5 -151t-78.5 -462z" />
<glyph unicode="1" horiz-adv-x="948" d="M119 0v115h330v823q0 120 20 242h-10q-30 -129 -107.5 -187t-210.5 -61l-16 121q169 6 250.5 83t107.5 257h103v-1278h301v-115h-768z" />
<glyph unicode="2" horiz-adv-x="1101" d="M113 0v92q381 309 531.5 508.5t150.5 396.5q0 149 -71 231.5t-200 82.5q-121 0 -196.5 -69.5t-75.5 -188.5q0 -56 12 -129l-137 26q-8 39 -8 97q0 170 115 272t301 102q193 0 300 -107.5t107 -299.5q0 -238 -197.5 -481t-545.5 -433v-10q137 33 364 33h406v-123h-856z " />
<glyph unicode="3" horiz-adv-x="1128" d="M102 360l140 46q8 -156 90 -241t229 -85q131 0 210 77t79 214q0 150 -91.5 221.5t-273.5 71.5h-71v124h73q159 0 247.5 71.5t88.5 201.5q0 121 -73.5 186.5t-194.5 65.5q-131 0 -208.5 -79.5t-84.5 -221.5l-135 41q13 180 130 274t298 94q184 0 300 -92t116 -260 q0 -150 -97 -244t-270 -94h-47v-12h45q188 0 291.5 -89.5t103.5 -258.5q0 -186 -119 -293t-319 -107t-321 100.5t-136 288.5z" />
<glyph unicode="4" horiz-adv-x="1110" d="M61 391v88q281 332 641 914h127v-887h209v-115h-209v-391h-135v391h-633zM170 487q64 19 160 19h364v457q0 190 25 307l-10 4q-19 -73 -68 -148q-217 -338 -365 -538q-40 -53 -106 -94v-7z" />
<glyph unicode="5" horiz-adv-x="1142" d="M133 332l135 45q15 -142 94 -218.5t207 -76.5q141 0 223 95.5t82 266.5t-78.5 263t-209.5 92q-186 0 -267 -166l-137 22l41 738h748l-35 -136h-600l-21 -417q-6 -115 -18 -174l10 -2q34 117 116.5 179t207.5 62q177 0 283 -123t106 -336q0 -224 -120 -349.5t-331 -125.5 q-187 0 -299 93t-137 268z" />
<glyph unicode="6" horiz-adv-x="1173" d="M133 678q0 353 131.5 548t370.5 195q330 0 397 -293l-137 -51q-56 236 -258 236q-171 0 -266 -167t-95 -474q0 -22 5 -105h10q19 161 112.5 249.5t243.5 88.5q180 0 286.5 -124t106.5 -335q0 -219 -115 -347t-309 -128q-230 0 -356.5 185t-126.5 522zM293 449 q31 -179 112.5 -273t208.5 -94q129 0 204 96t75 262q0 169 -77 265t-212 96q-129 0 -211.5 -93t-99.5 -259z" />
<glyph unicode="7" horiz-adv-x="987" d="M61 1257v136h865v-99q-131 -105 -221 -229t-142 -271.5t-74 -309t-22 -363.5v-121h-156v68q0 165 25.5 323t77.5 308t138.5 284t201.5 234q38 34 94 55v10q-119 -25 -223 -25h-564z" />
<glyph unicode="8" horiz-adv-x="1189" d="M133 348q0 143 89.5 238t254.5 127v6q-132 22 -213.5 116.5t-81.5 225.5q0 160 116.5 260t303.5 100q182 0 296 -95t114 -247q0 -132 -84.5 -220.5t-229.5 -110.5v-7q170 -29 264.5 -128t94.5 -248q0 -179 -127 -286.5t-338 -107.5q-209 0 -334 102.5t-125 274.5z M254 383q0 -135 94.5 -220t245.5 -85q145 0 231 79.5t86 213.5q0 125 -90.5 195t-324.5 122q-110 -29 -176 -112t-66 -193zM324 1061q0 -111 80.5 -179t265.5 -112q101 29 160 104.5t59 176.5q0 120 -79.5 193t-209.5 73q-126 0 -201 -69.5t-75 -186.5z" />
<glyph unicode="9" horiz-adv-x="1167" d="M133 958q0 216 116.5 339.5t315.5 123.5q231 0 350 -189t119 -550q0 -360 -118 -535.5t-357 -175.5q-171 0 -284 87.5t-134 248.5l135 53q46 -278 285 -278q171 0 250.5 144.5t79.5 457.5q0 49 -4 131h-8q-19 -152 -106 -234.5t-232 -82.5q-185 0 -296.5 126t-111.5 334z M281 967q0 -167 77.5 -265t210.5 -98q128 0 206.5 87t98.5 245q-59 375 -307 375q-134 0 -210 -90.5t-76 -253.5z" />
<glyph unicode=":" horiz-adv-x="516" d="M172 0v227h172v-227h-172zM172 797v227h172v-227h-172z" />
<glyph unicode=";" horiz-adv-x="526" d="M182 0v227h174v-170q0 -138 -26 -220t-92 -148l-56 43q54 58 75.5 116.5t21.5 143.5q0 16 10 26l-6 7q-19 -25 -47 -25h-54zM182 797v227h174v-227h-174z" />
<glyph unicode="&#x3c;" d="M61 467v102l1065 484v-107l-737 -336q-153 -68 -233 -88v-8q80 -20 233 -88l737 -336v-106z" />
<glyph unicode="=" d="M88 268v99h1012v-99h-1012zM88 672v98h1012v-98h-1012z" />
<glyph unicode="&#x3e;" d="M61 -16v106l738 336q153 68 233 88v8q-80 20 -233 88l-738 336v107l1065 -484v-102z" />
<glyph unicode="?" horiz-adv-x="997" d="M76 1042q0 199 114 309.5t318 110.5q187 0 295 -95.5t108 -258.5q0 -104 -50.5 -192.5t-160.5 -190.5q-92 -79 -125.5 -133.5t-33.5 -128.5v-72h-127v68q0 104 40.5 175.5t153.5 170.5q91 81 126.5 150.5t35.5 156.5q0 112 -70 176t-192 64q-149 0 -226 -87t-77 -257z M395 0v227h174v-227h-174z" />
<glyph unicode="@" horiz-adv-x="1751" d="M154 506q0 248 94.5 436t265 289.5t391.5 101.5q320 0 506 -193t186 -542q0 -147 -34.5 -265.5t-110.5 -194t-182 -75.5q-88 0 -135.5 56t-47.5 168q0 18 3 39h-13q-34 -260 -270 -260q-115 0 -181.5 61.5t-66.5 167.5q0 218 305 264l203 33v100q0 207 -193 207 q-89 0 -145.5 -50t-69.5 -142l-100 30q20 117 104 181.5t216 64.5q297 0 297 -309v-305q0 -113 26 -164t78 -51q64 0 110 61t67.5 157.5t21.5 215.5q0 320 -149.5 487.5t-418.5 167.5q-289 0 -464 -201.5t-175 -537.5q0 -318 171.5 -506t457.5 -188q132 0 247 36t191 95 l54 -82q-74 -59 -211.5 -102.5t-280.5 -43.5q-220 0 -389.5 97.5t-263.5 278t-94 417.5zM676 303q0 -72 43 -112.5t119 -40.5q104 0 166.5 72t62.5 194v96l-178 -31q-112 -18 -162.5 -61.5t-50.5 -116.5z" />
<glyph unicode="A" horiz-adv-x="1181" d="M72 0l452 1434h133l453 -1434h-152l-137 449h-493l-138 -449h-118zM358 551h433l-154 504q-49 154 -59 270h-9q-17 -141 -55 -266z" />
<glyph unicode="B" horiz-adv-x="1236" d="M225 0v1434h361q216 0 329 -88t113 -254q0 -142 -78 -231.5t-235 -92.5l-56 -2v-10l56 -2q190 -3 283.5 -99.5t93.5 -265.5q0 -188 -128 -288.5t-372 -100.5h-367zM367 102h241q165 0 249.5 74.5t84.5 216.5q0 152 -80.5 232t-238.5 80h-256v-603zM367 807h237 q133 0 204 71t71 199q0 125 -72 189.5t-211 64.5h-229v-524z" />
<glyph unicode="C" horiz-adv-x="1261" d="M154 717q0 365 140 555t394 190q196 0 314 -107.5t133 -307.5l-146 -39q-10 166 -90.5 256t-214.5 90q-183 0 -281 -161t-98 -476q0 -312 96.5 -473.5t282.5 -161.5q137 0 219 93t94 263l146 -39q-18 -209 -138.5 -318.5t-318.5 -109.5q-264 0 -398 190.5t-134 555.5z " />
<glyph unicode="D" horiz-adv-x="1318" d="M225 0v1434h326q313 0 463.5 -188.5t150.5 -528.5t-150.5 -528.5t-463.5 -188.5h-326zM367 102h174q249 0 360 153.5t111 461.5q0 309 -112 461.5t-359 152.5h-174v-1229z" />
<glyph unicode="E" horiz-adv-x="1103" d="M225 0v1434h742v-103h-600v-534h555v-101h-555v-594h610v-102h-752z" />
<glyph unicode="F" horiz-adv-x="1040" d="M225 0v1434h733v-103h-591v-555h561v-104h-561v-672h-142z" />
<glyph unicode="G" horiz-adv-x="1353" d="M154 711q0 368 138 559.5t396 191.5q193 0 315 -105t142 -304l-144 -41q-14 159 -97 249.5t-216 90.5q-383 0 -383 -637q0 -319 94.5 -475t284.5 -156q334 0 334 479v60h-346v102h481v-725h-111v168q0 117 11 297h-11q-19 -258 -114 -376t-281 -118q-235 0 -364 189 t-129 551z" />
<glyph unicode="H" horiz-adv-x="1349" d="M225 0v1434h142v-627h616v627h141v-1434h-141v705h-616v-705h-142z" />
<glyph unicode="I" horiz-adv-x="591" d="M225 0v1434h142v-1434h-142z" />
<glyph unicode="J" horiz-adv-x="1015" d="M61 326q0 52 15 108l135 21q-21 -59 -21 -117q0 -116 63.5 -184t172.5 -68q119 0 180.5 87.5t61.5 258.5v1002h141v-971q0 -492 -375 -492q-176 0 -274.5 95t-98.5 260z" />
<glyph unicode="K" horiz-adv-x="1234" d="M225 0v1434h142v-516q0 -120 -21 -170v-7q21 -62 21 -200v-541h-142zM356 743l592 691h160l-586 -674l652 -760h-193z" />
<glyph unicode="L" horiz-adv-x="995" d="M225 0v1434h142v-1323h587v-111h-729z" />
<glyph unicode="M" horiz-adv-x="1597" d="M225 0v1434h211l275 -920q70 -238 86 -416h10q0 4 2.5 27t3.5 30.5t4 30.5t5 35t6 36.5t8 42t10 44.5t13 51.5t15.5 55.5t18.5 63l281 920h198v-1434h-137v889q0 200 10 442h-10q-40 -198 -98 -391l-283 -940h-129l-291 954q-62 209 -94 375h-10q10 -245 10 -424v-905 h-115z" />
<glyph unicode="N" horiz-adv-x="1357" d="M225 0v1434h181l495 -1010q79 -159 127 -326h10q-18 153 -18 336v1000h113v-1434h-181l-503 1024q-82 164 -119 309h-11q17 -145 17 -338v-995h-111z" />
<glyph unicode="O" horiz-adv-x="1380" d="M154 717q0 363 139 554t397 191t396.5 -191.5t138.5 -553.5t-138.5 -554t-396.5 -192t-397 191.5t-139 554.5zM305 717q0 -635 385 -635q383 0 383 635t-383 635q-385 0 -385 -635z" />
<glyph unicode="P" horiz-adv-x="1169" d="M225 0v1434h393q235 0 347 -106.5t112 -287.5q0 -88 -26 -159.5t-80 -125.5t-143.5 -84t-209.5 -30h-251v-641h-142zM367 743h231q170 0 249 75t79 222q0 144 -79 217.5t-249 73.5h-231v-588z" />
<glyph unicode="Q" horiz-adv-x="1380" d="M154 717q0 363 139 554t397 191t396.5 -191.5t138.5 -553.5q0 -336 -119.5 -526t-343.5 -216q-70 -39 -70 -102q0 -46 29 -73t80 -27q88 0 137 75l29 -122q-59 -68 -164 -68q-89 0 -140 47t-51 117q0 50 23.5 88.5t60.5 50.5v10h-6q-258 0 -397 191.5t-139 554.5z M305 717q0 -635 385 -635q383 0 383 635t-383 635q-385 0 -385 -635z" />
<glyph unicode="R" horiz-adv-x="1271" d="M225 0v1434h418q204 0 318 -92t114 -271q0 -172 -102 -262t-285 -90h-55v-12l53 -2q36 -1 59.5 -3t53 -5.5t48.5 -10t42.5 -16.5t39 -24.5t34 -35t31 -48t26 -62t24.5 -78t21 -96.5q30 -159 42.5 -212.5t35.5 -113.5h-164q-20 80 -55 315q-16 107 -40 173t-65.5 105.5 t-95.5 54t-139 14.5h-217v-662h-142zM367 764h245q312 0 312 289q0 144 -79 211t-233 67h-245v-567z" />
<glyph unicode="S" d="M127 408l143 43q18 -369 340 -369q139 0 217 69t78 197q0 103 -50.5 167t-156.5 108l-233 96q-283 113 -283 379q0 177 116 270.5t312 93.5q191 0 310.5 -95t128.5 -282l-140 -43q-10 165 -88.5 238.5t-216.5 73.5q-130 0 -204 -60.5t-74 -175.5q0 -104 51.5 -164.5 t157.5 -105.5l221 -90q149 -62 222 -154t73 -233q0 -189 -118.5 -294.5t-326.5 -105.5q-221 0 -347 113t-132 324z" />
<glyph unicode="T" horiz-adv-x="1103" d="M72 1323v111h960v-111h-409v-1323h-142v1323h-409z" />
<glyph unicode="U" horiz-adv-x="1314" d="M209 526v908h145v-926q0 -213 78.5 -315.5t241.5 -102.5q166 0 241.5 103t75.5 317v924h115v-908q0 -283 -101 -419t-333 -136q-239 0 -351 136.5t-112 418.5z" />
<glyph unicode="V" horiz-adv-x="1110" d="M57 1434h152l272 -914q74 -244 88 -393h11q17 161 84 391l272 916h117l-443 -1434h-112z" />
<glyph unicode="W" horiz-adv-x="1650" d="M78 1434h151l183 -826q42 -189 73 -491h13q8 133 24.5 240t52.5 251l207 826h138l200 -826q62 -261 80 -491h10q8 123 23 226t51 265l186 826h103l-334 -1434h-119l-231 961q-49 206 -58 354h-10q-12 -152 -61 -359l-230 -956h-120z" />
<glyph unicode="X" horiz-adv-x="1144" d="M72 0l432 725l-402 709h164l275 -508q32 -56 37 -115h10q6 36 18.5 65.5t48.5 92.5l267 465h122l-399 -676l428 -758h-160l-301 553q-36 66 -41 117h-10q-11 -45 -21 -68.5t-40 -77.5l-301 -524h-127z" />
<glyph unicode="Y" horiz-adv-x="1107" d="M51 1434h160l283 -566q36 -71 51.5 -114.5t19.5 -94.5h10q6 55 19.5 97.5t46.5 107.5l295 570h121l-436 -824v-610h-142v612z" />
<glyph unicode="Z" horiz-adv-x="1110" d="M113 0v94l583 1043q80 138 129 196v8q-58 -20 -225 -20h-465v113h832v-93l-580 -1046q-79 -138 -127 -193v-10q54 23 219 23h518v-115h-884z" />
<glyph unicode="[" horiz-adv-x="632" d="M225 -225v1761h359v-86h-244v-1589h244v-86h-359z" />
<glyph unicode="\" horiz-adv-x="905" d="M117 1536h104l567 -1761h-104z" />
<glyph unicode="]" horiz-adv-x="632" d="M49 -139h244v1589h-244v86h359v-1761h-359v86z" />
<glyph unicode="^" d="M121 547l422 887h102l422 -887h-113l-360 768l-361 -768h-112z" />
<glyph unicode="_" horiz-adv-x="1003" d="M0 -244h1004v-84h-1004v84z" />
<glyph unicode="`" horiz-adv-x="1228" d="M457 1466h157l158 -270h-98z" />
<glyph unicode="a" horiz-adv-x="1073" d="M139 246q0 129 84.5 203t259.5 100l269 43v90q0 140 -56.5 205t-173.5 65q-114 0 -177.5 -59t-70.5 -176l-127 26q13 153 110.5 231.5t268.5 78.5q175 0 265 -89.5t90 -267.5v-368q0 -214 30 -328h-135q-16 68 -16 139q0 45 14 154h-12q-48 -322 -334 -322 q-133 0 -211 72.5t-78 202.5zM276 252q0 -88 52 -133t145 -45q131 0 205 91t74 259v65l-252 -43q-224 -36 -224 -194z" />
<glyph unicode="b" horiz-adv-x="1140" d="M205 0v1466h129v-432q0 -155 -33 -317h10q61 336 328 336q170 0 269.5 -145t99.5 -398q0 -251 -101.5 -395t-273.5 -144q-259 0 -320 326h-12q33 -143 33 -238v-59h-129zM317 512q0 -214 71 -327t204 -113q134 0 206 114t72 326t-72 326t-206 114q-133 0 -204 -113 t-71 -327z" />
<glyph unicode="c" horiz-adv-x="1015" d="M133 510q0 251 115 397t309 146q164 0 256.5 -84.5t101.5 -233.5l-129 -26q-9 113 -68 175t-161 62q-128 0 -207.5 -110.5t-79.5 -319.5q0 -206 74 -321t209 -115q97 0 156.5 58t74.5 165l127 -35q-25 -143 -116 -220t-242 -77q-209 0 -314.5 142t-105.5 397z" />
<glyph unicode="d" horiz-adv-x="1140" d="M133 510q0 253 99.5 398t269.5 145q266 0 327 -336h11q-33 162 -33 317v432h129v-1466h-129v59q0 95 33 238h-13q-30 -160 -107.5 -243t-211.5 -83q-172 0 -273.5 144t-101.5 395zM270 512q0 -212 72.5 -326t206.5 -114q133 0 203.5 113t70.5 327t-70.5 327t-203.5 113 q-134 0 -206.5 -114t-72.5 -326z" />
<glyph unicode="e" horiz-adv-x="1052" d="M133 510q0 258 108 400.5t304 142.5q179 0 277 -122.5t98 -346.5q0 -8 -5 -90h-649q2 -203 74.5 -308.5t210.5 -105.5q102 0 159.5 53t77.5 164l121 -39q-26 -139 -118.5 -213t-241.5 -74q-198 0 -307 140.5t-109 398.5zM266 590h518q0 179 -60.5 270.5t-178.5 91.5 q-129 0 -202.5 -95.5t-76.5 -266.5z" />
<glyph unicode="f" horiz-adv-x="800" d="M51 926v98h232v168q0 150 74 226.5t204 76.5q161 0 248 -125l-84 -78q-34 45 -71.5 68.5t-90.5 23.5q-73 0 -111 -50t-38 -144v-166h334v-98h-334v-926h-131v926h-232z" />
<glyph unicode="g" horiz-adv-x="1085" d="M106 -172q0 95 67 154t183 71l64 6v11h-66q-99 0 -156 43t-57 125q0 67 42.5 109t117.5 56v13q-137 97 -137 282q0 160 103 257.5t270 97.5q145 0 243 -76l6 4q-14 35 -14 82q0 60 37 97.5t102 37.5q47 0 90 -18l-26 -129q-39 20 -80 20q-42 0 -65 -21t-23 -57 q0 -28 14 -53q88 -98 88 -242q0 -158 -103 -255t-269 -97q-107 0 -195 43q-88 -45 -88 -121q0 -58 41.5 -85.5t132.5 -28.5l289 -4q321 -3 321 -261q0 -161 -131.5 -244t-361.5 -83q-217 0 -328 68t-111 198zM233 -147q0 -93 77.5 -139t240.5 -46q165 0 257.5 51.5 t92.5 155.5q0 72 -48 112.5t-138 41.5l-299 4q-96 -21 -139.5 -66t-43.5 -114zM297 698q0 -117 65 -187.5t175 -70.5q109 0 174 70.5t65 187.5q0 118 -65 189t-174 71q-110 0 -175 -70.5t-65 -189.5z" />
<glyph unicode="h" horiz-adv-x="1122" d="M205 0v1466h129v-444q0 -162 -27 -336h10q25 188 102 277.5t220 89.5t221 -92t78 -267v-694h-129v659q0 142 -54.5 215.5t-158.5 73.5q-262 0 -262 -440v-508h-129z" />
<glyph unicode="i" horiz-adv-x="538" d="M199 1233v233h141v-233h-141zM205 0v1024h129v-1024h-129z" />
<glyph unicode="j" horiz-adv-x="565" d="M-55 -383l59 96q47 -37 102 -37q136 0 136 195v1153h129v-1145q0 -162 -61 -239.5t-189 -77.5q-109 0 -176 55zM236 1233v233h141v-233h-141z" />
<glyph unicode="k" horiz-adv-x="1009" d="M205 0v1466h129v-682q0 -136 -21 -206v-7q21 -92 21 -249v-322h-129zM322 573l446 451h150l-447 -449l487 -575h-163z" />
<glyph unicode="l" horiz-adv-x="538" d="M205 0v1466h129v-1466h-129z" />
<glyph unicode="m" horiz-adv-x="1613" d="M205 0v1024h127v-35q0 -104 -31 -309h10q25 200 92 286.5t197 86.5q126 1 190 -93q60 -88 60 -257v-21h10q15 188 85.5 279.5t209.5 91.5q141 0 204.5 -97.5t63.5 -291.5v-664h-129v651q0 301 -190 301q-225 0 -225 -424v-528h-129v631q0 158 -41.5 239.5t-141.5 81.5 q-117 0 -175 -106t-58 -301v-545h-129z" />
<glyph unicode="n" horiz-adv-x="1128" d="M205 0v1024h127v-47q0 -99 -25 -291h10q23 188 101 277.5t223 89.5q141 0 219 -92t78 -267v-694h-129v657q0 291 -211 291q-133 0 -198.5 -108.5t-65.5 -331.5v-508h-129z" />
<glyph unicode="o" horiz-adv-x="1103" d="M133 512q0 261 108.5 401t311.5 140q202 0 310 -140t108 -401t-108 -401t-312 -140q-201 0 -309.5 140t-108.5 401zM270 512q0 -211 73.5 -325.5t207.5 -114.5q137 0 210 114t73 326t-73 326t-208 114t-209 -114t-74 -326z" />
<glyph unicode="p" horiz-adv-x="1140" d="M205 -410v1434h127v-49q0 -98 -31 -256h10q30 164 109.5 249t216.5 85q171 0 271 -143.5t100 -395.5q0 -255 -99 -399t-272 -144q-141 0 -218.5 83.5t-107.5 250.5h-10q33 -162 33 -301v-414h-129zM317 512q0 -214 71 -327t202 -113q135 0 207.5 114t72.5 326t-72 326 t-206 114q-133 0 -204 -113t-71 -327z" />
<glyph unicode="q" horiz-adv-x="1140" d="M133 514q0 252 100 395.5t271 143.5q137 0 216 -84.5t109 -249.5h11q-31 158 -31 256v49h127v-1434h-129v414q0 139 33 301h-11q-30 -167 -107 -250.5t-218 -83.5q-173 0 -272 144t-99 399zM270 512q0 -212 73 -326t208 -114q131 0 201.5 113t70.5 327t-70.5 327 t-203.5 113q-134 0 -206.5 -114t-72.5 -326z" />
<glyph unicode="r" horiz-adv-x="735" d="M205 0v1024h127v-35q0 -106 -31 -344h12q17 207 80 307.5t180 100.5q70 0 121 -33l-41 -131q-50 35 -121 35q-198 0 -198 -367v-557h-129z" />
<glyph unicode="s" horiz-adv-x="972" d="M106 289l123 28q10 -122 80.5 -183.5t194.5 -61.5q108 0 165.5 47.5t57.5 132.5q0 70 -36.5 112t-110.5 66l-168 53q-135 42 -201 112.5t-66 180.5q0 127 95 202t258 75q160 0 255 -71.5t105 -209.5l-125 -31q-20 211 -239 211q-100 0 -159 -45t-59 -123 q0 -73 44.5 -115.5t136.5 -70.5l164 -53q126 -40 182.5 -104.5t56.5 -170.5q0 -145 -96 -222t-268 -77q-180 0 -279 81t-111 237z" />
<glyph unicode="t" horiz-adv-x="827" d="M51 926v98h217v283l129 63v-346h316v-98h-316v-627q0 -120 34.5 -167.5t113.5 -47.5q94 0 182 63l18 -108q-37 -27 -98 -47.5t-121 -20.5q-131 0 -194.5 72t-63.5 227v656h-217z" />
<glyph unicode="u" horiz-adv-x="1128" d="M190 330v694h129v-657q0 -291 213 -291q263 0 263 440v508h129v-1024h-127v49q0 105 24 289h-10q-23 -188 -101 -277.5t-223 -89.5q-141 0 -219 92t-78 267z" />
<glyph unicode="v" horiz-adv-x="944" d="M61 1024h142l190 -596q73 -221 86 -326h13q9 119 75 314l197 608h119l-344 -1024h-131z" />
<glyph unicode="w" horiz-adv-x="1376" d="M72 1024h137l149 -639q33 -135 48 -272h12q10 138 45 272l174 639h137l168 -641q40 -142 51 -270h11q7 109 43 270l143 641h115l-258 -1024h-132l-172 651q-42 167 -47 258h-12q-3 -109 -45 -258l-176 -651h-133z" />
<glyph unicode="x" horiz-adv-x="962" d="M74 0l338 512l-328 512h158l180 -297q28 -49 39 -73.5t18 -57.5h6q8 32 19 54t45 73l190 301h121l-321 -492l352 -532h-158l-201 324q-42 67 -59 129h-8q-7 -34 -17.5 -58.5t-39.5 -66.5l-211 -328h-123z" />
<glyph unicode="y" horiz-adv-x="972" d="M47 -385l49 104q61 -43 129 -43q63 0 102 38t64 118l45 137l-356 1055h141l225 -688q27 -79 39 -133t15 -123h10q12 128 51 250l227 694h113l-414 -1237q-75 -223 -264 -223q-97 0 -176 51z" />
<glyph unicode="z" horiz-adv-x="899" d="M102 0v80l451 731q53 83 106 119v10q-70 -22 -135 -22h-405v106h661v-80l-448 -731q-52 -82 -107 -119v-10q70 22 133 22h445v-106h-701z" />
<glyph unicode="{" horiz-adv-x="669" d="M147 610v92q92 16 127 85t35 204v312q0 111 61 178t156 67h97v-92h-56q-137 0 -137 -160v-338q0 -117 -37 -184t-112 -117v-4q73 -47 111 -116.5t38 -184.5v-338q0 -159 137 -159h56v-93h-97q-95 0 -156 67.5t-61 178.5v311q0 136 -34.5 204.5t-127.5 86.5z" />
<glyph unicode="|" horiz-adv-x="550" d="M225 -246v1802h101v-1802h-101z" />
<glyph unicode="}" horiz-adv-x="669" d="M47 -145h57q74 0 105 41.5t31 117.5v338q0 115 38 184.5t111 116.5v4q-75 51 -112 118t-37 183v338q0 160 -136 160h-57v92h96q95 0 157 -67t62 -178v-312q0 -136 34 -204.5t128 -84.5v-92q-94 -18 -128 -86t-34 -205v-311q0 -111 -62 -178.5t-157 -67.5h-96v93z" />
<glyph unicode="~" d="M156 514q3 122 51.5 188t136.5 66q69 0 166 -57l217 -125q85 -49 133 -49q50 0 80 46.5t31 127.5l61 -31q-1 -123 -51 -188.5t-137 -65.5q-76 0 -166 53l-217 125q-92 53 -135 53q-47 0 -76.5 -46.5t-32.5 -127.5z" />
<glyph unicode="&#xa1;" horiz-adv-x="624" d="M225 797v227h174v-227h-174zM242 -362q0 252 8 551t18 444h90q10 -148 18.5 -447t8.5 -548v-48h-143v48z" />
<glyph unicode="&#xa2;" horiz-adv-x="1015" d="M133 510q0 238 104 382.5t283 158.5v180h62v-178q153 -7 238.5 -91.5t94.5 -226.5l-129 -26q-9 107 -61 168.5t-143 68.5v-864q85 7 136.5 64.5t65.5 156.5l127 -35q-23 -136 -107 -213t-222 -84v-174h-62v174q-192 12 -289.5 153t-97.5 386zM270 516q0 -194 65 -307.5 t185 -126.5v862q-113 -16 -181.5 -125.5t-68.5 -302.5z" />
<glyph unicode="&#xa3;" horiz-adv-x="1165" d="M98 141q0 83 57.5 135t155.5 52q71 0 142 -33q0 35 -5 72t-11 65t-18.5 68.5t-20 61.5t-25 66.5t-23.5 61.5h-207v60h185q-54 146 -54 266q0 188 108 295.5t298 107.5q360 0 410 -344l-134 -51q-26 297 -280 297q-120 0 -187 -79.5t-67 -221.5q0 -106 53 -270h420v-60 h-399q24 -76 35.5 -115.5t23.5 -105.5t12 -121q0 -53 -10 -115q8 -6 51.5 -38.5t59 -41.5t49.5 -28.5t61.5 -26t57.5 -6.5q115 0 251 150l17 -152q-43 -54 -112.5 -86.5t-155.5 -32.5q-30 0 -57 4t-54.5 15.5t-44.5 19t-45.5 28t-38 27t-41 32.5t-35.5 30q-36 -72 -95 -113 t-132 -41q-85 0 -140 44.5t-55 123.5zM207 121q0 -36 23.5 -57t60.5 -21q54 0 91.5 37.5t55.5 103.5q-60 31 -116 31q-54 0 -84.5 -26t-30.5 -68z" />
<glyph unicode="&#xa4;" d="M143 227l111 117q-107 120 -107 297t107 297l-111 117l62 57l110 -119q120 90 283 90q154 0 274 -84l109 115l61 -57l-106 -115q111 -121 111 -301q0 -177 -109 -299l104 -113l-63 -57l-105 113q-119 -86 -276 -86q-163 0 -283 90l-110 -119zM262 641q0 -151 96 -244.5 t240 -93.5q142 0 238 93.5t96 244.5t-96 244.5t-238 93.5q-144 0 -240 -93.5t-96 -244.5z" />
<glyph unicode="&#xa5;" horiz-adv-x="1107" d="M51 1393h162l279 -549q38 -72 53.5 -112t19.5 -91h10q6 52 20 93.5t48 107.5l293 551h121l-428 -787h368v-57h-376v-115h376v-57h-376v-377h-142v377h-358v57h358v115h-358v57h352z" />
<glyph unicode="&#xa6;" horiz-adv-x="550" d="M225 -246v783h101v-783h-101zM225 774v782h101v-782h-101z" />
<glyph unicode="&#xa7;" horiz-adv-x="1073" d="M117 594q0 106 78 169t208 68v11q-249 90 -249 305q0 142 106 228.5t281 86.5q160 0 261.5 -76t129.5 -217l-139 -36q-12 104 -82.5 162.5t-180.5 58.5q-105 0 -168 -54t-63 -145q0 -145 195 -207l221 -67q125 -39 184 -100t59 -156q0 -105 -80.5 -167t-218.5 -67v-8 q263 -87 263 -309q0 -142 -107.5 -230t-282.5 -88q-160 0 -261.5 77t-127.5 218l138 37q13 -104 83 -163.5t179 -59.5q106 0 169.5 54.5t63.5 146.5q0 146 -196 204l-220 70q-122 38 -182.5 98t-60.5 156zM254 633q0 -64 36.5 -104.5t125.5 -67.5l184 -60q108 15 164.5 62 t56.5 123q0 62 -37.5 103.5t-124.5 70.5l-192 61q-103 -15 -158 -63.5t-55 -124.5z" />
<glyph unicode="&#xa8;" horiz-adv-x="1228" d="M393 1243v223h135v-223h-135zM700 1243v223h136v-223h-136z" />
<glyph unicode="&#xa9;" horiz-adv-x="1918" d="M154 717q0 178 60 331t165 260.5t255 168.5t324 61q234 0 418 -104.5t286.5 -291.5t102.5 -425t-102.5 -425t-286.5 -291.5t-418 -104.5q-174 0 -324 61t-255 168.5t-165 260.5t-60 331zM254 717q0 -212 90 -379.5t250.5 -260.5t363.5 -93q204 0 364.5 93t250.5 260.5 t90 379.5q0 213 -90 380.5t-250.5 260t-364.5 92.5q-203 0 -363.5 -92.5t-250.5 -260t-90 -380.5zM604 715q0 250 97.5 379t277.5 129q140 0 223 -74t92 -213l-112 -27q-7 113 -61.5 172.5t-143.5 59.5q-123 0 -187.5 -107t-64.5 -317q0 -209 63.5 -315.5t188.5 -106.5 q93 0 147.5 60.5t63.5 176.5l112 -26q-12 -146 -96 -220.5t-225 -74.5q-186 0 -280.5 128t-94.5 376z" />
<glyph unicode="&#xaa;" horiz-adv-x="677" d="M96 823q0 88 57 138t177 69l182 29v63q0 95 -38 140t-118 45q-77 0 -120.5 -41.5t-47.5 -120.5l-88 18q10 104 76 157.5t182 53.5q244 0 244 -244v-251q0 -147 21 -224h-93q-12 53 -12 95q0 18 10 106h-8q-31 -221 -227 -221q-92 0 -144.5 49t-52.5 139zM188 827 q0 -59 36.5 -90.5t99.5 -31.5q89 0 138.5 62t49.5 179v45l-170 -30q-154 -25 -154 -134z" />
<glyph unicode="&#xab;" horiz-adv-x="946" d="M117 459v106l278 342h125l-231 -295q-62 -77 -94 -96v-8q32 -19 94 -96l231 -295h-125zM446 459v106l279 342h127l-234 -295q-56 -74 -94 -96v-8q38 -22 94 -96l234 -295h-127z" />
<glyph unicode="&#xac;" d="M121 678v94h946v-545h-96v451h-850z" />
<glyph unicode="&#xad;" horiz-adv-x="825" d="M127 500v106h573v-106h-573z" />
<glyph unicode="&#xae;" horiz-adv-x="1918" d="M154 717q0 178 60 331t165 260.5t255 168.5t324 61q234 0 418 -104.5t286.5 -291.5t102.5 -425t-102.5 -425t-286.5 -291.5t-418 -104.5q-174 0 -324 61t-255 168.5t-165 260.5t-60 331zM254 717q0 -212 90 -379.5t250.5 -260.5t363.5 -93q204 0 364.5 93t250.5 260.5 t90 379.5q0 213 -90 380.5t-250.5 260t-364.5 92.5q-203 0 -363.5 -92.5t-250.5 -260t-90 -380.5zM674 229v975h295q144 0 225.5 -62.5t81.5 -187.5q0 -115 -71 -176t-199 -61h-39v-10h37q41 -1 65 -3.5t54 -11t49 -24.5t39 -43.5t34 -69.5t25 -100q22 -111 30.5 -146.5 t24.5 -79.5h-127q-16 62 -39 213q-16 98 -45.5 148.5t-72 67t-117.5 16.5h-140v-445h-110zM784 752h160q213 0 213 190q0 184 -213 184h-160v-374z" />
<glyph unicode="&#xaf;" horiz-adv-x="1228" d="M365 1284v94h499v-94h-499z" />
<glyph unicode="&#xb0;" horiz-adv-x="864" d="M117 1149q0 132 91 222.5t224 90.5t224.5 -90.5t91.5 -222.5t-91 -221.5t-225 -89.5t-224.5 89.5t-90.5 221.5zM221 1149q0 -93 61 -154t150 -61t150 61t61 154q0 94 -61 155.5t-150 61.5t-150 -61.5t-61 -155.5z" />
<glyph unicode="&#xb1;" d="M82 0v94h1024v-94h-1024zM82 553v94h465v367h94v-367h465v-94h-465v-352h-94v352h-465z" />
<glyph unicode="&#xb2;" horiz-adv-x="813" d="M115 778v70q237 165 337.5 286.5t100.5 241.5q0 79 -43.5 124.5t-120.5 45.5q-74 0 -120 -39t-46 -108q0 -37 8 -78l-110 20q-6 24 -6 58q0 106 77.5 168.5t204.5 62.5q129 0 201 -64.5t72 -179.5q0 -138 -122 -276t-345 -252v-8q74 20 192 20h295v-92h-575z" />
<glyph unicode="&#xb3;" horiz-adv-x="825" d="M102 997l105 27q5 -86 54.5 -133t139.5 -47q79 0 128 43.5t49 118.5q0 47 -17 79.5t-49.5 49.5t-70.5 24.5t-87 7.5h-47v88h49q97 0 151 40t54 112q0 65 -45 102t-117 37q-79 0 -126 -44.5t-50 -123.5l-102 31q9 107 86 164t199 57t197 -56.5t75 -156.5q0 -90 -64 -145 t-172 -55h-34v-9h34q119 0 185.5 -55t66.5 -156q0 -110 -78.5 -172.5t-212.5 -62.5q-136 0 -213.5 59.5t-87.5 175.5z" />
<glyph unicode="&#xb4;" horiz-adv-x="1228" d="M457 1196l157 270h158l-217 -270h-98z" />
<glyph unicode="&#xb5;" horiz-adv-x="1128" d="M190 -410v1434h129v-657q0 -291 213 -291q263 0 263 440v508h129v-1024h-127v49q0 105 24 289h-10q-23 -188 -101 -277.5t-223 -89.5q-98 0 -168 45v-426h-129z" />
<glyph unicode="&#xb6;" horiz-adv-x="1275" d="M117 1034q0 178 118.5 289t296.5 111h627v-91h-160v-1636h-108v1636h-248v-1636h-108v930q-180 0 -299 110t-119 287z" />
<glyph unicode="&#xb7;" horiz-adv-x="516" d="M172 641v227h172v-227h-172z" />
<glyph unicode="&#xb8;" horiz-adv-x="1228" d="M424 -377l27 74q64 -64 145 -64q57 0 88 26.5t31 74.5q0 40 -31.5 63t-85.5 23q-40 0 -100 -13l75 193h74l-24 -59q-24 -58 -54 -74v-10q49 18 76 18q75 0 117.5 -39t42.5 -108q0 -76 -53 -121t-144 -45q-114 0 -184 61z" />
<glyph unicode="&#xb9;" horiz-adv-x="704" d="M111 1421q114 1 168 46t75 147h84v-750h191v-86h-512v86h209v453q0 86 16 166h-8q-20 -85 -70.5 -125t-140.5 -41z" />
<glyph unicode="&#xba;" horiz-adv-x="763" d="M90 1006q0 178 74.5 273t212.5 95t212.5 -95t74.5 -273t-74.5 -274.5t-212.5 -96.5t-212.5 96.5t-74.5 274.5zM184 1006q0 -145 50.5 -223t142.5 -78t142 78t50 223t-50 223t-142 78t-142.5 -78t-50.5 -223z" />
<glyph unicode="&#xbb;" horiz-adv-x="946" d="M96 117l232 295q62 77 94 96v8q-32 19 -94 96l-232 295h125l279 -342v-106l-279 -342h-125zM426 117l233 295q56 73 95 96v8q-39 23 -95 96l-233 295h127l278 -342v-106l-278 -342h-127z" />
<glyph unicode="&#xbc;" horiz-adv-x="1691" d="M111 1241q114 1 168 46t75 147h84v-750h191v-86h-512v86h209v453q0 91 16 166h-8q-20 -85 -70.5 -125t-140.5 -41zM346 0l997 1434h82l-999 -1434h-80zM965 219v62q193 220 403 555h111v-533h129v-84h-129v-219h-111v219h-403zM1044 291q35 12 95 12h229v258 q0 114 16 193l-6 2q-16 -51 -43 -92q-108 -165 -223 -308q-25 -30 -68 -59v-6z" />
<glyph unicode="&#xbd;" horiz-adv-x="1824" d="M111 1241q114 1 168 46t75 147h84v-750h191v-86h-512v86h209v453q0 91 16 166h-8q-20 -85 -70.5 -125t-140.5 -41zM346 0l997 1434h82l-999 -1434h-80zM1126 0v70q238 166 338.5 287t100.5 241q0 79 -43.5 124.5t-120.5 45.5q-74 0 -120 -39t-46 -108q0 -37 8 -78 l-110 20q-7 28 -7 58q0 106 78 168.5t205 62.5q129 0 200.5 -64t71.5 -180q0 -137 -122.5 -275.5t-344.5 -252.5v-8q74 20 193 20h295v-92h-576z" />
<glyph unicode="&#xbe;" horiz-adv-x="1736" d="M102 817l105 27q5 -86 54.5 -133t139.5 -47q79 0 128 43t49 118q0 62 -31.5 99t-78.5 50t-114 13h-47v88h49q97 0 151 40t54 112q0 65 -45 102t-117 37q-79 0 -126 -44.5t-50 -123.5l-102 31q9 107 86 164t199 57t197 -56.5t75 -156.5q0 -90 -64 -145.5t-172 -55.5h-34 v-8h34q119 0 185.5 -55t66.5 -156q0 -110 -78.5 -172.5t-212.5 -62.5q-136 0 -213.5 59.5t-87.5 175.5zM393 0l998 1434h82l-1000 -1434h-80zM1012 219v62q193 220 403 555h111v-533h129v-84h-129v-219h-111v219h-403zM1092 291q35 12 94 12h229v258q0 109 17 193l-7 2 q-16 -51 -43 -92q-108 -165 -223 -308q-26 -32 -67 -59v-6z" />
<glyph unicode="&#xbf;" horiz-adv-x="888" d="M86 -84q0 104 50.5 192.5t160.5 190.5q92 80 126 134.5t34 127.5v72h127v-68q0 -103 -41 -175t-154 -171q-91 -81 -126.5 -150.5t-35.5 -156.5q0 -112 70 -176t192 -64q149 0 225.5 87t76.5 257l131 -34q0 -199 -114.5 -309.5t-318.5 -110.5q-187 0 -295 95.5t-108 258.5 zM428 797v227h174v-227h-174z" />
<glyph unicode="&#xc0;" horiz-adv-x="1181" d="M72 0l452 1434h133l453 -1434h-152l-137 449h-493l-138 -449h-118zM330 1663h162l155 -164h-112zM358 551h433l-154 504q-49 154 -59 270h-9q-17 -141 -55 -266z" />
<glyph unicode="&#xc1;" horiz-adv-x="1181" d="M72 0l452 1434h133l453 -1434h-152l-137 449h-493l-138 -449h-118zM358 551h433l-154 504q-49 154 -59 270h-9q-17 -141 -55 -266zM532 1499l158 164h160l-203 -164h-115z" />
<glyph unicode="&#xc2;" horiz-adv-x="1181" d="M72 0l452 1434h133l453 -1434h-152l-137 449h-493l-138 -449h-118zM322 1499l188 164h160l188 -164h-133l-41 35q-71 63 -92 84h-4q-2 -2 -32 -29t-62 -55l-41 -35h-131zM358 551h433l-154 504q-49 154 -59 270h-9q-17 -141 -55 -266z" />
<glyph unicode="&#xc3;" horiz-adv-x="1181" d="M72 0l452 1434h133l453 -1434h-152l-137 449h-493l-138 -449h-118zM287 1499q7 85 49.5 128.5t116.5 43.5q50 0 100.5 -22t95 -44t78.5 -22q68 0 80 78h84q-7 -85 -49.5 -128.5t-116.5 -43.5q-50 0 -100.5 22t-95 44t-78.5 22q-67 0 -82 -78h-82zM358 551h433l-154 504 q-49 154 -59 270h-9q-17 -141 -55 -266z" />
<glyph unicode="&#xc4;" horiz-adv-x="1181" d="M72 0l452 1434h133l453 -1434h-152l-137 449h-493l-138 -449h-118zM358 551h433l-154 504q-49 154 -59 270h-9q-17 -141 -55 -266zM369 1499v164h135v-164h-135zM676 1499v164h135v-164h-135z" />
<glyph unicode="&#xc5;" horiz-adv-x="1181" d="M72 0l452 1434h133l453 -1434h-152l-137 449h-493l-138 -449h-118zM358 551h433l-154 504q-49 154 -59 270h-9q-17 -141 -55 -266zM426 1638q0 71 47 115.5t117 44.5t117 -44.5t47 -115.5t-47 -115t-117 -44t-117 44t-47 115zM492 1638q0 -45 28 -72.5t70 -27.5t70 27.5 t28 72.5t-28 73t-70 28t-70 -28t-28 -73z" />
<glyph unicode="&#xc6;" horiz-adv-x="1548" d="M51 0l670 1434h690v-103h-508v-534h463v-103h-463v-592h518v-102h-651v401h-399l-189 -401h-131zM416 496h354v794h-8q-13 -91 -92 -256z" />
<glyph unicode="&#xc7;" horiz-adv-x="1261" d="M154 717q0 365 140 555t394 190q196 0 314 -107.5t133 -307.5l-146 -39q-10 166 -90.5 256t-214.5 90q-183 0 -281 -161t-98 -476q0 -312 96.5 -473.5t282.5 -161.5q137 0 219 93t94 263l146 -39q-18 -204 -132.5 -313t-305.5 -115l-13 -30q-24 -59 -53 -74v-10 q49 18 76 18q75 0 117 -39t42 -108q0 -77 -52.5 -121.5t-143.5 -44.5q-114 0 -184 61l26 74q64 -64 146 -64q57 0 87.5 26.5t30.5 74.5q0 40 -31 63t-85 23q-41 0 -101 -13l66 166q-238 20 -358.5 209t-120.5 535z" />
<glyph unicode="&#xc8;" horiz-adv-x="1103" d="M225 0v1434h742v-103h-600v-534h555v-101h-555v-594h610v-102h-752zM342 1663h162l155 -164h-112z" />
<glyph unicode="&#xc9;" horiz-adv-x="1103" d="M225 0v1434h742v-103h-600v-534h555v-101h-555v-594h610v-102h-752zM547 1499l158 164h159l-202 -164h-115z" />
<glyph unicode="&#xca;" horiz-adv-x="1103" d="M225 0v1434h742v-103h-600v-534h555v-101h-555v-594h610v-102h-752zM336 1499l188 164h160l188 -164h-133l-41 35q-71 63 -92 84h-4q-2 -2 -32 -29t-62 -55l-41 -35h-131z" />
<glyph unicode="&#xcb;" horiz-adv-x="1103" d="M225 0v1434h742v-103h-600v-534h555v-101h-555v-594h610v-102h-752zM383 1499v164h135v-164h-135zM690 1499v164h135v-164h-135z" />
<glyph unicode="&#xcc;" horiz-adv-x="591" d="M37 1663h162l155 -164h-112zM225 0v1434h142v-1434h-142z" />
<glyph unicode="&#xcd;" horiz-adv-x="591" d="M225 0v1434h142v-1434h-142zM240 1499l157 164h160l-203 -164h-114z" />
<glyph unicode="&#xce;" horiz-adv-x="591" d="M29 1499l188 164h160l188 -164h-133l-41 35q-71 63 -92 84h-4q-2 -2 -32 -29t-62 -55l-41 -35h-131zM225 0v1434h142v-1434h-142z" />
<glyph unicode="&#xcf;" horiz-adv-x="591" d="M76 1499v164h135v-164h-135zM225 0v1434h142v-1434h-142zM383 1499v164h135v-164h-135z" />
<glyph unicode="&#xd0;" horiz-adv-x="1318" d="M61 688v57h164v689h326q313 0 463.5 -188.5t150.5 -528.5t-150.5 -528.5t-463.5 -188.5h-326v688h-164zM367 102h174q249 0 360 153.5t111 461.5q0 309 -112 461.5t-359 152.5h-174v-586h307v-57h-307v-586z" />
<glyph unicode="&#xd1;" horiz-adv-x="1357" d="M225 0v1434h181l495 -1010q79 -159 127 -326h10q-18 153 -18 336v1000h113v-1434h-181l-503 1024q-82 164 -119 309h-11q17 -145 17 -338v-995h-111zM383 1499q7 85 49.5 128.5t116.5 43.5q50 0 100.5 -22t95 -44t78.5 -22q68 0 80 78h84q-7 -85 -49.5 -128.5 t-116.5 -43.5q-50 0 -100.5 22t-95 44t-78.5 22q-67 0 -82 -78h-82z" />
<glyph unicode="&#xd2;" horiz-adv-x="1380" d="M154 717q0 363 139 554t397 191t396.5 -191.5t138.5 -553.5t-138.5 -554t-396.5 -192t-397 191.5t-139 554.5zM305 717q0 -635 385 -635q383 0 383 635t-383 635q-385 0 -385 -635zM430 1663h162l156 -164h-113z" />
<glyph unicode="&#xd3;" horiz-adv-x="1380" d="M154 717q0 363 139 554t397 191t396.5 -191.5t138.5 -553.5t-138.5 -554t-396.5 -192t-397 191.5t-139 554.5zM305 717q0 -635 385 -635q383 0 383 635t-383 635q-385 0 -385 -635zM633 1499l158 164h159l-202 -164h-115z" />
<glyph unicode="&#xd4;" horiz-adv-x="1380" d="M154 717q0 363 139 554t397 191t396.5 -191.5t138.5 -553.5t-138.5 -554t-396.5 -192t-397 191.5t-139 554.5zM305 717q0 -635 385 -635q383 0 383 635t-383 635q-385 0 -385 -635zM424 1499l188 164h160l189 -164h-134l-41 35q-71 63 -92 84h-4q-2 -2 -32 -29t-62 -55 l-41 -35h-131z" />
<glyph unicode="&#xd5;" horiz-adv-x="1380" d="M154 717q0 363 139 554t397 191t396.5 -191.5t138.5 -553.5t-138.5 -554t-396.5 -192t-397 191.5t-139 554.5zM305 717q0 -635 385 -635q383 0 383 635t-383 635q-385 0 -385 -635zM387 1499q7 85 49.5 128.5t116.5 43.5q50 0 100.5 -22t95 -44t78.5 -22q68 0 80 78h84 q-7 -85 -49.5 -128.5t-116.5 -43.5q-50 0 -100.5 22t-95 44t-78.5 22q-67 0 -82 -78h-82z" />
<glyph unicode="&#xd6;" horiz-adv-x="1380" d="M154 717q0 363 139 554t397 191t396.5 -191.5t138.5 -553.5t-138.5 -554t-396.5 -192t-397 191.5t-139 554.5zM305 717q0 -635 385 -635q383 0 383 635t-383 635q-385 0 -385 -635zM469 1499v164h135v-164h-135zM776 1499v164h135v-164h-135z" />
<glyph unicode="&#xd7;" d="M199 182l329 330l-329 330l65 65l330 -329l330 329l65 -65l-330 -330l330 -330l-65 -65l-330 329l-330 -329z" />
<glyph unicode="&#xd8;" horiz-adv-x="1380" d="M154 717q0 363 139 554t397 191q215 0 350 -135l68 107h74l-101 -158q144 -191 144 -559q0 -362 -138.5 -554t-396.5 -192q-215 0 -348 133l-68 -104h-75l98 156q-143 190 -143 561zM305 717q0 -277 74 -434l588 927q-95 142 -277 142q-385 0 -385 -635zM414 221 q95 -139 276 -139q383 0 383 635q0 273 -72 432z" />
<glyph unicode="&#xd9;" horiz-adv-x="1314" d="M209 526v908h145v-926q0 -213 78.5 -315.5t241.5 -102.5q166 0 241.5 103t75.5 317v924h115v-908q0 -283 -101 -419t-333 -136q-239 0 -351 136.5t-112 418.5zM406 1663h161l156 -164h-113z" />
<glyph unicode="&#xda;" horiz-adv-x="1314" d="M209 526v908h145v-926q0 -213 78.5 -315.5t241.5 -102.5q166 0 241.5 103t75.5 317v924h115v-908q0 -283 -101 -419t-333 -136q-239 0 -351 136.5t-112 418.5zM608 1499l158 164h160l-203 -164h-115z" />
<glyph unicode="&#xdb;" horiz-adv-x="1314" d="M209 526v908h145v-926q0 -213 78.5 -315.5t241.5 -102.5q166 0 241.5 103t75.5 317v924h115v-908q0 -283 -101 -419t-333 -136q-239 0 -351 136.5t-112 418.5zM399 1499l189 164h160l188 -164h-133l-41 35q-71 63 -92 84h-4q-4 -4 -16.5 -15t-33.5 -30t-45 -39l-41 -35 h-131z" />
<glyph unicode="&#xdc;" horiz-adv-x="1314" d="M209 526v908h145v-926q0 -213 78.5 -315.5t241.5 -102.5q166 0 241.5 103t75.5 317v924h115v-908q0 -283 -101 -419t-333 -136q-239 0 -351 136.5t-112 418.5zM444 1499v164h136v-164h-136zM752 1499v164h135v-164h-135z" />
<glyph unicode="&#xdd;" horiz-adv-x="1107" d="M51 1434h160l283 -566q36 -71 51.5 -114.5t19.5 -94.5h10q6 55 19.5 97.5t46.5 107.5l295 570h121l-436 -824v-610h-142v612zM512 1499l158 164h159l-202 -164h-115z" />
<glyph unicode="&#xde;" horiz-adv-x="1210" d="M225 0v1434h140v-238h297q98 0 176 -22.5t129 -60t85.5 -89.5t49 -107t14.5 -116t-14.5 -117t-49 -108.5t-85.5 -90.5t-129.5 -61t-175.5 -23h-297v-401h-140zM365 502h274q170 0 250 81.5t80 217.5q0 134 -80.5 214.5t-249.5 80.5h-274v-594z" />
<glyph unicode="&#xdf;" horiz-adv-x="1181" d="M205 0v1069q0 195 94.5 294t273.5 99q181 0 276 -92t95 -268q0 -144 -92.5 -235t-261.5 -91h-43v-10h43q220 0 339.5 -98.5t119.5 -282.5q0 -196 -101 -305t-289 -109q-118 0 -196 47v117q91 -55 188 -55q125 0 192.5 79.5t67.5 223.5q0 161 -107 245.5t-306 84.5h-35 v108h33q149 0 235 75.5t86 201.5q0 132 -63 199t-183 67q-239 0 -239 -291v-1073h-127z" />
<glyph unicode="&#xe0;" horiz-adv-x="1073" d="M139 246q0 129 84.5 203t259.5 100l269 43v90q0 140 -56.5 205t-173.5 65q-114 0 -177.5 -59t-70.5 -176l-127 26q13 153 110.5 231.5t268.5 78.5q175 0 265 -89.5t90 -267.5v-368q0 -214 30 -328h-135q-16 68 -16 139q0 45 14 154h-12q-48 -322 -334 -322 q-133 0 -211 72.5t-78 202.5zM254 1434h158l157 -271h-98zM276 252q0 -88 52 -133t145 -45q131 0 205 91t74 259v65l-252 -43q-224 -36 -224 -194z" />
<glyph unicode="&#xe1;" horiz-adv-x="1073" d="M139 246q0 129 84.5 203t259.5 100l269 43v90q0 140 -56.5 205t-173.5 65q-114 0 -177.5 -59t-70.5 -176l-127 26q13 153 110.5 231.5t268.5 78.5q175 0 265 -89.5t90 -267.5v-368q0 -214 30 -328h-135q-16 68 -16 139q0 45 14 154h-12q-48 -322 -334 -322 q-133 0 -211 72.5t-78 202.5zM276 252q0 -88 52 -133t145 -45q131 0 205 91t74 259v65l-252 -43q-224 -36 -224 -194zM483 1163l158 271h158l-219 -271h-97z" />
<glyph unicode="&#xe2;" horiz-adv-x="1073" d="M139 246q0 129 84.5 203t259.5 100l269 43v90q0 140 -56.5 205t-173.5 65q-114 0 -177.5 -59t-70.5 -176l-127 26q13 153 110.5 231.5t268.5 78.5q175 0 265 -89.5t90 -267.5v-368q0 -214 30 -328h-135q-16 68 -16 139q0 45 14 154h-12q-48 -322 -334 -322 q-133 0 -211 72.5t-78 202.5zM264 1163l187 271h147l186 -271h-125l-55 82q-42 57 -56.5 82t-21.5 53h-4q-7 -26 -21 -49.5t-57 -85.5l-55 -82h-125zM276 252q0 -88 52 -133t145 -45q131 0 205 91t74 259v65l-252 -43q-224 -36 -224 -194z" />
<glyph unicode="&#xe3;" horiz-adv-x="1073" d="M139 246q0 129 84.5 203t259.5 100l269 43v90q0 140 -56.5 205t-173.5 65q-114 0 -177.5 -59t-70.5 -176l-127 26q13 153 110.5 231.5t268.5 78.5q175 0 265 -89.5t90 -267.5v-368q0 -214 30 -328h-135q-16 68 -16 139q0 45 14 154h-12q-48 -322 -334 -322 q-133 0 -211 72.5t-78 202.5zM221 1163q15 191 166 191q39 0 80 -15t70 -33.5t63 -33.5t62 -15q67 0 79 86h84q-15 -190 -166 -190q-50 0 -100.5 24t-95 48t-78.5 24q-67 0 -82 -86h-82zM276 252q0 -88 52 -133t145 -45q131 0 205 91t74 259v65l-252 -43q-224 -36 -224 -194 z" />
<glyph unicode="&#xe4;" horiz-adv-x="1073" d="M139 246q0 129 84.5 203t259.5 100l269 43v90q0 140 -56.5 205t-173.5 65q-114 0 -177.5 -59t-70.5 -176l-127 26q13 153 110.5 231.5t268.5 78.5q175 0 265 -89.5t90 -267.5v-368q0 -214 30 -328h-135q-16 68 -16 139q0 45 14 154h-12q-48 -322 -334 -322 q-133 0 -211 72.5t-78 202.5zM276 252q0 -88 52 -133t145 -45q131 0 205 91t74 259v65l-252 -43q-224 -36 -224 -194zM303 1210v224h135v-224h-135zM610 1210v224h135v-224h-135z" />
<glyph unicode="&#xe5;" horiz-adv-x="1073" d="M139 246q0 129 84.5 203t259.5 100l269 43v90q0 140 -56.5 205t-173.5 65q-114 0 -177.5 -59t-70.5 -176l-127 26q13 153 110.5 231.5t268.5 78.5q175 0 265 -89.5t90 -267.5v-368q0 -214 30 -328h-135q-16 68 -16 139q0 45 14 154h-12q-48 -322 -334 -322 q-133 0 -211 72.5t-78 202.5zM276 252q0 -88 52 -133t145 -45q131 0 205 91t74 259v65l-252 -43q-224 -36 -224 -194zM324 1343q0 87 56.5 142t143.5 55t145 -55t58 -142q0 -86 -58 -141t-145 -55t-143.5 55t-56.5 141zM403 1343q0 -55 34 -89.5t87 -34.5t88 34.5t35 89.5 q0 56 -35 90.5t-88 34.5t-87 -35t-34 -90z" />
<glyph unicode="&#xe6;" horiz-adv-x="1642" d="M139 240q0 131 85.5 203t262.5 100l256 41v125q0 119 -57 181t-166 62q-114 0 -176 -59.5t-70 -175.5l-127 26q13 150 113 230t268 80q232 0 299 -191q96 191 318 191q175 0 269.5 -121.5t94.5 -347.5q0 -20 -4 -86h-635v-6q0 -203 72 -307.5t213 -104.5q189 0 227 215 l121 -37q-27 -144 -121 -215.5t-231 -71.5q-296 0 -377 322h-6q-23 -156 -110.5 -238t-235.5 -82q-130 0 -206.5 71t-76.5 196zM276 246q0 -83 51 -127.5t142 -44.5q127 0 200.5 84t73.5 227v100l-237 -43q-118 -21 -174 -66t-56 -130zM870 592h504q0 360 -227 360 q-126 0 -200 -95t-77 -265z" />
<glyph unicode="&#xe7;" horiz-adv-x="1015" d="M133 510q0 251 115 397t309 146q164 0 256.5 -84.5t101.5 -233.5l-129 -26q-9 113 -68 175t-161 62q-128 0 -207.5 -110.5t-79.5 -319.5q0 -206 74 -321t209 -115q97 0 156.5 58t74.5 165l127 -35q-23 -135 -106.5 -211.5t-220.5 -85.5l-13 -30q-24 -59 -53 -74v-10 q49 18 76 18q75 0 117.5 -39t42.5 -108q0 -76 -53 -121t-144 -45q-114 0 -184 61l26 74q64 -64 146 -64q57 0 88 26.5t31 74.5q0 40 -31.5 63t-85.5 23q-41 0 -101 -13l66 166q-188 13 -283.5 154t-95.5 383z" />
<glyph unicode="&#xe8;" horiz-adv-x="1052" d="M133 510q0 258 108 400.5t304 142.5q179 0 277 -122.5t98 -346.5q0 -8 -5 -90h-649q2 -203 74.5 -308.5t210.5 -105.5q102 0 159.5 53t77.5 164l121 -39q-26 -139 -118.5 -213t-241.5 -74q-198 0 -307 140.5t-109 398.5zM266 590h518q0 179 -60.5 270.5t-178.5 91.5 q-129 0 -202.5 -95.5t-76.5 -266.5zM268 1434h158l158 -271h-99z" />
<glyph unicode="&#xe9;" horiz-adv-x="1052" d="M133 510q0 258 108 400.5t304 142.5q179 0 277 -122.5t98 -346.5q0 -8 -5 -90h-649q2 -203 74.5 -308.5t210.5 -105.5q102 0 159.5 53t77.5 164l121 -39q-26 -139 -118.5 -213t-241.5 -74q-198 0 -307 140.5t-109 398.5zM266 590h518q0 179 -60.5 270.5t-178.5 91.5 q-129 0 -202.5 -95.5t-76.5 -266.5zM498 1163l157 271h158l-219 -271h-96z" />
<glyph unicode="&#xea;" horiz-adv-x="1052" d="M133 510q0 258 108 400.5t304 142.5q179 0 277 -122.5t98 -346.5q0 -8 -5 -90h-649q2 -203 74.5 -308.5t210.5 -105.5q102 0 159.5 53t77.5 164l121 -39q-26 -139 -118.5 -213t-241.5 -74q-198 0 -307 140.5t-109 398.5zM266 590h518q0 179 -60.5 270.5t-178.5 91.5 q-129 0 -202.5 -95.5t-76.5 -266.5zM279 1163l186 271h147l187 -271h-125l-56 82q-65 89 -77 135h-4q-7 -26 -21 -49.5t-57 -85.5l-56 -82h-124z" />
<glyph unicode="&#xeb;" horiz-adv-x="1052" d="M133 510q0 258 108 400.5t304 142.5q179 0 277 -122.5t98 -346.5q0 -8 -5 -90h-649q2 -203 74.5 -308.5t210.5 -105.5q102 0 159.5 53t77.5 164l121 -39q-26 -139 -118.5 -213t-241.5 -74q-198 0 -307 140.5t-109 398.5zM266 590h518q0 179 -60.5 270.5t-178.5 91.5 q-129 0 -202.5 -95.5t-76.5 -266.5zM317 1210v224h136v-224h-136zM625 1210v224h135v-224h-135z" />
<glyph unicode="&#xec;" horiz-adv-x="538" d="M0 1434h158l157 -271h-98zM205 0v1024h129v-1024h-129z" />
<glyph unicode="&#xed;" horiz-adv-x="538" d="M205 0v1024h129v-1024h-129zM229 1163l158 271h158l-219 -271h-97z" />
<glyph unicode="&#xee;" horiz-adv-x="538" d="M10 1163l187 271h147l186 -271h-124l-56 82q-42 57 -56.5 82t-21.5 53h-4q-7 -26 -21 -49.5t-57 -85.5l-55 -82h-125zM205 0v1024h129v-1024h-129z" />
<glyph unicode="&#xef;" horiz-adv-x="538" d="M49 1210v224h135v-224h-135zM205 0v1024h129v-1024h-129zM356 1210v224h136v-224h-136z" />
<glyph unicode="&#xf0;" d="M133 502q0 234 114.5 372t307.5 138q160 0 255 -108t114 -312h10q-15 211 -81.5 368.5t-197.5 278.5l-280 -113l-35 91l229 92q-101 75 -233 135l139 51q120 -59 217 -137l262 104l33 -90l-215 -86q264 -261 264 -686q0 -299 -119.5 -459.5t-332.5 -160.5 q-208 0 -329.5 141.5t-121.5 380.5zM270 500q0 -189 86.5 -302.5t231.5 -113.5q139 0 223 109t84 294q0 190 -87 305t-226 115q-141 0 -226.5 -110.5t-85.5 -296.5z" />
<glyph unicode="&#xf1;" horiz-adv-x="1128" d="M205 0v1024h127v-47q0 -99 -25 -291h10q23 188 101 277.5t223 89.5q141 0 219 -92t78 -267v-694h-129v657q0 291 -211 291q-133 0 -198.5 -108.5t-65.5 -331.5v-508h-129zM262 1163q15 191 166 191q39 0 80 -15t69.5 -33.5t62.5 -33.5t62 -15q68 0 80 86h84 q-15 -190 -166 -190q-50 0 -100.5 24t-95 48t-78.5 24q-67 0 -82 -86h-82z" />
<glyph unicode="&#xf2;" horiz-adv-x="1103" d="M133 512q0 261 108.5 401t311.5 140q202 0 310 -140t108 -401t-108 -401t-312 -140q-201 0 -309.5 140t-108.5 401zM270 512q0 -211 73.5 -325.5t207.5 -114.5q137 0 210 114t73 326t-73 326t-208 114t-209 -114t-74 -326zM283 1434h157l158 -271h-98z" />
<glyph unicode="&#xf3;" horiz-adv-x="1103" d="M133 512q0 261 108.5 401t311.5 140q202 0 310 -140t108 -401t-108 -401t-312 -140q-201 0 -309.5 140t-108.5 401zM270 512q0 -211 73.5 -325.5t207.5 -114.5q137 0 210 114t73 326t-73 326t-208 114t-209 -114t-74 -326zM512 1163l158 271h157l-219 -271h-96z" />
<glyph unicode="&#xf4;" horiz-adv-x="1103" d="M133 512q0 261 108.5 401t311.5 140q202 0 310 -140t108 -401t-108 -401t-312 -140q-201 0 -309.5 140t-108.5 401zM270 512q0 -211 73.5 -325.5t207.5 -114.5q137 0 210 114t73 326t-73 326t-208 114t-209 -114t-74 -326zM293 1163l186 271h148l186 -271h-125l-55 82 q-42 57 -56.5 82t-21.5 53h-4q-7 -26 -21 -49.5t-57 -85.5l-55 -82h-125z" />
<glyph unicode="&#xf5;" horiz-adv-x="1103" d="M133 512q0 261 108.5 401t311.5 140q202 0 310 -140t108 -401t-108 -401t-312 -140q-201 0 -309.5 140t-108.5 401zM250 1163q15 191 166 191q39 0 80 -15t69.5 -33.5t62.5 -33.5t62 -15q68 0 80 86h84q-15 -190 -166 -190q-50 0 -100.5 24t-95 48t-78.5 24 q-67 0 -82 -86h-82zM270 512q0 -211 73.5 -325.5t207.5 -114.5q137 0 210 114t73 326t-73 326t-208 114t-209 -114t-74 -326z" />
<glyph unicode="&#xf6;" horiz-adv-x="1103" d="M133 512q0 261 108.5 401t311.5 140q202 0 310 -140t108 -401t-108 -401t-312 -140q-201 0 -309.5 140t-108.5 401zM270 512q0 -211 73.5 -325.5t207.5 -114.5q137 0 210 114t73 326t-73 326t-208 114t-209 -114t-74 -326zM332 1210v224h135v-224h-135zM639 1210v224h135 v-224h-135z" />
<glyph unicode="&#xf7;" d="M82 469v96h1024v-96h-1024zM520 0v223h148v-223h-148zM520 801v223h148v-223h-148z" />
<glyph unicode="&#xf8;" horiz-adv-x="1103" d="M131 0l96 131q-94 139 -94 381q0 261 108.5 401t311.5 140q174 0 281 -107l57 78h82l-96 -129q94 -142 94 -383q0 -261 -108 -401t-312 -140q-174 0 -281 107l-57 -78h-82zM270 512q0 -162 43 -266l445 598q-70 108 -205 108t-209 -114t-74 -326zM346 180 q74 -108 205 -108q137 0 210 114t73 326q0 162 -43 266z" />
<glyph unicode="&#xf9;" horiz-adv-x="1128" d="M190 330v694h129v-657q0 -291 213 -291q263 0 263 440v508h129v-1024h-127v49q0 105 24 289h-10q-23 -188 -101 -277.5t-223 -89.5q-141 0 -219 92t-78 267zM285 1434h157l158 -271h-98z" />
<glyph unicode="&#xfa;" horiz-adv-x="1128" d="M190 330v694h129v-657q0 -291 213 -291q263 0 263 440v508h129v-1024h-127v49q0 105 24 289h-10q-23 -188 -101 -277.5t-223 -89.5q-141 0 -219 92t-78 267zM514 1163l158 271h157l-219 -271h-96z" />
<glyph unicode="&#xfb;" horiz-adv-x="1128" d="M190 330v694h129v-657q0 -291 213 -291q263 0 263 440v508h129v-1024h-127v49q0 105 24 289h-10q-23 -188 -101 -277.5t-223 -89.5q-141 0 -219 92t-78 267zM295 1163l186 271h148l186 -271h-125l-55 82q-42 57 -56.5 82t-21.5 53h-4q-7 -26 -21 -49.5t-57 -85.5l-55 -82 h-125z" />
<glyph unicode="&#xfc;" horiz-adv-x="1128" d="M190 330v694h129v-657q0 -291 213 -291q263 0 263 440v508h129v-1024h-127v49q0 105 24 289h-10q-23 -188 -101 -277.5t-223 -89.5q-141 0 -219 92t-78 267zM334 1210v224h135v-224h-135zM641 1210v224h135v-224h-135z" />
<glyph unicode="&#xfd;" horiz-adv-x="972" d="M47 -385l49 104q61 -43 129 -43q63 0 102 38t64 118l45 137l-356 1055h141l225 -688q27 -79 39 -133t15 -123h10q12 128 51 250l227 694h113l-414 -1237q-75 -223 -264 -223q-97 0 -176 51zM442 1163l158 271h158l-219 -271h-97z" />
<glyph unicode="&#xfe;" horiz-adv-x="1140" d="M205 -410v1876h129v-432q0 -155 -33 -317h10q61 336 328 336q170 0 269.5 -145t99.5 -398q0 -251 -101.5 -395t-273.5 -144q-259 0 -320 326h-12q33 -143 33 -238v-469h-129zM317 512q0 -214 71 -327t204 -113q134 0 206 114t72 326t-72 326t-206 114q-133 0 -204 -113 t-71 -327z" />
<glyph unicode="&#xff;" horiz-adv-x="972" d="M47 -385l49 104q61 -43 129 -43q63 0 102 38t64 118l45 137l-356 1055h141l225 -688q27 -79 39 -133t15 -123h10q12 128 51 250l227 694h113l-414 -1237q-75 -223 -264 -223q-97 0 -176 51zM262 1210v224h135v-224h-135zM569 1210v224h136v-224h-136z" />
<glyph unicode="&#x152;" horiz-adv-x="1665" d="M154 717q0 356 139 549.5t403 193.5q91 0 158 -33v7h674v-103h-533v-534h488v-103h-488v-592h543v-102h-676q-74 -27 -166 -27q-264 0 -403 194t-139 550zM305 717q0 -315 98.5 -475t292.5 -160q91 0 158 37v1194q-74 39 -158 39q-194 0 -292.5 -160t-98.5 -475z" />
<glyph unicode="&#x153;" horiz-adv-x="1765" d="M133 512q0 260 109.5 400.5t314.5 140.5q248 0 346 -226q50 110 139.5 168t212.5 58q180 0 278.5 -122.5t98.5 -346.5q0 -24 -4 -90h-649q2 -203 74 -308.5t211 -105.5q101 0 159 53t78 164l121 -39q-26 -138 -119.5 -212.5t-242.5 -74.5q-125 0 -216 58t-141 168 q-97 -226 -348 -226q-204 0 -313 140.5t-109 400.5zM270 512q0 -212 74 -326t211 -114q138 0 212.5 114t74.5 326t-74 326t-211 114q-138 0 -212.5 -114t-74.5 -326zM979 590h518q0 178 -61.5 270t-180.5 92q-128 0 -200.5 -95.5t-75.5 -266.5z" />
<glyph unicode="&#x178;" horiz-adv-x="1107" d="M51 1434h160l283 -566q36 -71 51.5 -114.5t19.5 -94.5h10q6 55 19.5 97.5t46.5 107.5l295 570h121l-436 -824v-610h-142v612zM348 1499v164h135v-164h-135zM655 1499v164h136v-164h-136z" />
<glyph unicode="&#x2c6;" horiz-adv-x="1228" d="M354 1196l187 270h147l186 -270h-124l-56 82q-42 57 -56.5 82t-21.5 53h-4q-7 -27 -21 -51t-56 -84l-56 -82h-125z" />
<glyph unicode="&#x2dc;" horiz-adv-x="1228" d="M311 1196q15 190 166 190q50 0 101 -24t95.5 -48t78.5 -24q67 0 79 86h84q-15 -190 -165 -190q-50 0 -101 24t-95.5 48t-78.5 24q-68 0 -80 -86h-84z" />
<glyph unicode="&#x2000;" horiz-adv-x="899" />
<glyph unicode="&#x2001;" horiz-adv-x="1798" />
<glyph unicode="&#x2002;" horiz-adv-x="899" />
<glyph unicode="&#x2003;" horiz-adv-x="1798" />
<glyph unicode="&#x2004;" horiz-adv-x="599" />
<glyph unicode="&#x2005;" horiz-adv-x="449" />
<glyph unicode="&#x2006;" horiz-adv-x="299" />
<glyph unicode="&#x2007;" horiz-adv-x="299" />
<glyph unicode="&#x2008;" horiz-adv-x="224" />
<glyph unicode="&#x2009;" horiz-adv-x="359" />
<glyph unicode="&#x200a;" horiz-adv-x="99" />
<glyph unicode="&#x2010;" horiz-adv-x="825" d="M127 500v106h573v-106h-573z" />
<glyph unicode="&#x2011;" horiz-adv-x="825" d="M127 500v106h573v-106h-573z" />
<glyph unicode="&#x2012;" horiz-adv-x="825" d="M127 500v106h573v-106h-573z" />
<glyph unicode="&#x2013;" horiz-adv-x="1255" d="M127 500v106h1003v-106h-1003z" />
<glyph unicode="&#x2014;" horiz-adv-x="1767" d="M127 500v106h1515v-106h-1515z" />
<glyph unicode="&#x2018;" horiz-adv-x="526" d="M170 954v170q0 138 26.5 220.5t92.5 148.5l55 -43q-54 -58 -75 -116t-21 -144q0 -17 -10 -27l6 -6q19 25 47 25h53v-228h-174z" />
<glyph unicode="&#x2019;" horiz-adv-x="526" d="M182 989q54 58 75.5 116.5t21.5 143.5q0 17 10 27l-6 6q-19 -25 -47 -25h-54v228h174v-170q0 -139 -26 -221t-92 -148z" />
<glyph unicode="&#x201a;" horiz-adv-x="526" d="M182 0v227h174v-170q0 -138 -26 -220t-92 -148l-56 43q54 58 75.5 116.5t21.5 143.5q0 16 10 26l-6 7q-19 -25 -47 -25h-54z" />
<glyph unicode="&#x201c;" horiz-adv-x="817" d="M170 954v170q0 138 26.5 220.5t92.5 148.5l55 -43q-54 -58 -75 -116t-21 -144q0 -17 -10 -27l6 -6q19 25 47 25h53v-228h-174zM463 954v170q0 138 26 220.5t91 148.5l55 -43q-54 -58 -75 -116t-21 -144q0 -14 -9 -27l5 -6q19 25 47 25h53v-228h-172z" />
<glyph unicode="&#x201d;" horiz-adv-x="817" d="M182 989q54 58 75.5 116.5t21.5 143.5q0 17 10 27l-6 6q-19 -25 -47 -25h-54v228h174v-170q0 -139 -26 -221t-92 -148zM473 1257v228h174v-170q0 -138 -26.5 -220.5t-92.5 -148.5l-53 43q53 59 74.5 117.5t21.5 142.5q0 18 9 27l-7 6q-17 -25 -45 -25h-55z" />
<glyph unicode="&#x201e;" horiz-adv-x="817" d="M182 0v227h174v-170q0 -138 -26 -220t-92 -148l-56 43q54 58 75.5 116.5t21.5 143.5q0 16 10 26l-6 7q-19 -25 -47 -25h-54zM473 0v227h174v-170q0 -138 -26.5 -220t-92.5 -148l-53 43q53 59 74.5 117.5t21.5 142.5q0 17 9 26l-7 7q-17 -25 -45 -25h-55z" />
<glyph unicode="&#x2022;" horiz-adv-x="661" d="M117 621q0 90 61 152.5t154 62.5q91 0 152 -62.5t61 -152.5t-61 -152.5t-152 -62.5q-93 0 -154 62.5t-61 152.5z" />
<glyph unicode="&#x2026;" horiz-adv-x="1587" d="M172 0v227h172v-227h-172zM707 0v227h174v-227h-174zM1243 0v227h174v-227h-174z" />
<glyph unicode="&#x202f;" horiz-adv-x="359" />
<glyph unicode="&#x2039;" horiz-adv-x="616" d="M117 459v106l278 342h125l-231 -295q-62 -77 -94 -96v-8q32 -19 94 -96l231 -295h-125z" />
<glyph unicode="&#x203a;" horiz-adv-x="616" d="M96 117l232 295q62 77 94 96v8q-32 19 -94 96l-232 295h125l279 -342v-106l-279 -342h-125z" />
<glyph unicode="&#x205f;" horiz-adv-x="449" />
<glyph unicode="&#x20ac;" horiz-adv-x="1251" d="M10 559l21 57h162q-3 40 -3 80q0 44 3 88h-175l19 58h160q26 284 155 431.5t346 147.5q184 0 294.5 -106t125.5 -299l-139 -39q-10 161 -85 249.5t-200 88.5q-303 0 -344 -473h490l-21 -58h-473q-2 -29 -2 -88q0 -53 2 -80h424l-20 -57h-400q19 -236 107.5 -358.5 t242.5 -122.5q129 0 205.5 90t87.5 250l140 -37q-17 -198 -128.5 -304t-302.5 -106q-227 0 -354.5 150t-150.5 438h-187z" />
<glyph unicode="&#x2122;" horiz-adv-x="1652" d="M84 1368v66h598v-66h-250v-752h-98v752h-250zM780 616v818h129l178 -560q14 -43 37 -184h6q4 24 9 55.5t7.5 44.5t8 34.5t14.5 47.5l177 562h131v-818h-93v467q0 126 5 285h-7q-47 -211 -71 -285l-150 -467h-88l-151 471q-31 103 -68 281h-6q4 -104 4 -283v-469h-72z" />
<glyph unicode="&#x25fc;" horiz-adv-x="1024" d="M0 0v1024h1024v-1024h-1024z" />
<glyph unicode="&#xfb03;" horiz-adv-x="2152" d="M51 926v98h232v168q0 150 74 226.5t204 76.5q161 0 248 -125l-84 -78q-34 45 -71.5 68.5t-90.5 23.5q-73 0 -111 -50t-38 -144v-166h334v-98h-334v-926h-131v926h-232zM866 926v98h232v168q0 150 74 226.5t204 76.5q161 0 248 -125l-84 -78q-34 45 -71.5 68.5t-90.5 23.5 q-73 0 -111 -50t-38 -144v-166h334v-98h-334v-926h-131v926h-232zM1812 1233v233h142v-233h-142zM1819 0v1024h129v-1024h-129z" />
<glyph unicode="&#xfb04;" horiz-adv-x="2152" d="M51 926v98h232v168q0 150 74 226.5t204 76.5q161 0 248 -125l-84 -78q-34 45 -71.5 68.5t-90.5 23.5q-73 0 -111 -50t-38 -144v-166h334v-98h-334v-926h-131v926h-232zM866 926v98h232v168q0 150 74 226.5t204 76.5q161 0 248 -125l-84 -78q-34 45 -71.5 68.5t-90.5 23.5 q-73 0 -111 -50t-38 -144v-166h334v-98h-334v-926h-131v926h-232zM1819 0v1466h129v-1466h-129z" />
</font>
</defs>
</svg>
