<svg width="152" height="150" viewBox="0 0 152 150" fill="none" xmlns="http://www.w3.org/2000/svg">
<g clip-path="url(#clip0)">
<path d="M75.9398 127.39L49.5797 149.52L43.5797 115.67H9.13977L26.3297 85.8798L-0.0302734 63.6898L32.2598 51.9198L26.4298 18.0698L58.7197 29.8398L75.9098 0.0498047L93.1998 29.8398L125.49 18.0698L119.55 51.9198L151.84 63.6898L125.49 85.8798L142.68 115.67H108.3L102.3 149.52L75.9398 127.39ZM75.9398 122.08C86.373 122.092 96.4873 118.485 104.558 111.874C112.63 105.262 118.158 96.0564 120.2 85.8251C122.243 75.5938 120.673 64.9708 115.759 55.7673C110.845 46.5638 102.891 39.3497 93.2528 35.355C83.6147 31.3604 72.8894 30.8324 62.9055 33.8613C52.9216 36.8901 44.2974 43.2881 38.5033 51.9645C32.7092 60.6409 30.104 71.0585 31.1318 81.4409C32.1597 91.8234 36.7569 101.528 44.1398 108.9C48.2594 113.152 53.2062 116.515 58.6754 118.781C64.1446 121.048 70.0202 122.171 75.9398 122.08V122.08Z" fill="black"/>
</g>
<defs>
<clipPath id="clip0">
<rect width="151.87" height="149.48" fill="white"/>
</clipPath>
</defs>
</svg>
